# WaveFront *.obj file (generated by CINEMA 4D)

g KAR98K
v -0.231341 1.213708 0.36583
v -0.231341 1.222448 0.366329
v -0.231596 1.219378 0.363829
v -0.231792 1.217009 0.361898
v -0.231792 1.209579 0.361258
v -0.227309 1.171996 0.266324
v -0.224808 1.169562 0.265837
v -0.224958 1.170508 0.284581
v -0.232019 1.177304 0.284581
v -0.231792 1.176359 0.267198
v -0.227508 1.172111 0.261852
v -0.226843 1.170904 0.224039
v -0.226421 1.170424 0.218689
v -0.224221 1.167524 0.215522
v -0.224275 1.16771 0.2243
v -0.223869 1.168339 0.23947
v -0.22372 1.168535 0.255069
v -0.231567 1.22305 0.279006
v -0.232244 1.223487 0.254531
v -0.231792 1.217734 0.248856
v -0.232019 1.21736 0.286691
v -0.231832 1.219709 0.283518
v -0.230889 1.174968 0.216765
v -0.23017 1.172952 0.203475
v -0.223383 1.166865 0.203342
v -0.230889 1.203173 0.227956
v -0.230889 1.207437 0.233765
v -0.229064 1.202797 0.18338
v -0.229064 1.190952 0.183277
v -0.230889 1.195784 0.217892
v -0.229216 1.196004 0.22622
v -0.229507 1.196407 0.241413
v -0.231306 1.203047 0.241775
v -0.229064 1.190328 0.176934
v -0.229064 1.202601 0.176957
v -0.229064 1.198574 0.166707
v -0.23074 1.193031 0.154014
v -0.231594 1.180514 0.154532
v -0.229754 1.17044 0.155051
v -0.228839 1.158894 0.155569
v -0.229064 1.164605 0.166472
v -0.229064 1.169197 0.176887
v -0.229064 1.180499 0.176911
v -0.230889 1.186112 0.215116
v -0.229064 1.181141 0.18317
v -0.229064 1.169857 0.183064
v -0.231792 1.209072 0.248274
v -0.231792 1.2029 0.25795
v -0.231792 1.197029 0.264943
v -0.232019 1.197315 0.285637
v -0.232019 1.209028 0.286164
v -0.230889 1.215595 0.234685
v -0.229043 1.212442 0.197638
v -0.229043 1.212551 0.194792
v -0.229043 1.212116 0.191434
v -0.229043 1.211559 0.187399
v -0.226541 1.210782 0.1835
v -0.226541 1.210795 0.17709
v -0.226541 1.209151 0.176981
v -0.230889 1.217993 0.235593
v -0.231409 1.208378 0.242115
v -0.224308 1.214573 0.507515
v -0.223718 1.22161 0.508222
v -0.224503 1.221731 0.454606
v -0.226561 1.222065 0.43936
v -0.22729 1.214154 0.439005
v -0.222065 1.222065 0.43936
v -0.223615 1.222193 0.413949
v -0.225314 1.222199 0.412728
v -0.225453 1.222221 0.407502
v -0.225528 1.222233 0.405789
v -0.225768 1.22227 0.400325
v -0.229262 1.22227 0.400325
v -0.222013 1.222069 0.455105
v -0.222113 1.222867 0.455003
v -0.222586 1.227588 0.454513
v -0.223048 1.2274 0.43936
v -0.221473 1.220027 0.71677
v -0.220472 1.22042 0.716548
v -0.222261 1.221971 0.553893
v -0.222805 1.221969 0.553893
v -0.222805 1.221461 0.553896
v -0.221032 1.220039 0.715461
v -0.221473 1.220928 0.716763
v -0.22103 1.22094 0.715579
v -0.222805 1.222634 0.55389
v -0.221473 1.222417 0.725546
v -0.221473 1.225522 0.72552
v -0.221473 1.222945 0.716745
v -0.221744 1.213348 0.825089
v -0.219594 1.218587 0.825111
v -0.220469 1.218556 0.822026
v -0.222619 1.211388 0.821993
v -0.222566 1.211458 0.825081
v -0.220144 1.21875 0.841054
v -0.21938 1.218716 0.837674
v -0.221529 1.213519 0.837661
v -0.222351 1.211741 0.837656
v -0.222294 1.211817 0.84104
v -0.232171 1.18772 0.143423
v -0.233142 1.182034 0.132831
v -0.233853 1.167179 0.133674
v -0.233785 1.154768 0.134516
v -0.229535 1.140883 0.135359
v -0.230438 1.150641 0.145464
v -0.229535 1.13081 0.118735
v -0.234345 1.146032 0.117446
v -0.233467 1.159781 0.116157
v -0.232042 1.175974 0.114869
v -0.23065 1.177149 0.10585
v -0.227184 1.186011 0.082618
v -0.22818 1.168139 0.084034
v -0.22818 1.152713 0.08545
v -0.22818 1.135812 0.086866
v -0.229535 1.130816 0.111051
v -0.232868 1.177056 0.123887
v -0.229535 1.133062 0.126419
v -0.229175 1.186286 0.222025
v -0.229843 1.187261 0.260834
v -0.229734 1.196718 0.25319
v -0.213964 1.236478 0.235584
v -0.219842 1.235745 0.243375
v -0.222837 1.235371 0.245575
v -0.223439 1.234991 0.248856
v -0.213964 1.236116 0.248856
v -0.227539 1.219695 0.283602
v -0.227229 1.221447 0.281172
v -0.227305 1.22305 0.279006
v -0.221464 1.221457 0.553276
v -0.221655 1.22144 0.552622
v -0.221655 1.221434 0.550755
v -0.221463 1.221429 0.550064
v -0.221463 1.221429 0.548594
v -0.221463 1.221429 0.535803
v -0.221463 1.221429 0.532586
v -0.226064 1.228447 0.281211
v -0.225989 1.221464 0.281174
v -0.213964 1.221631 0.281193
v -0.213964 1.239513 0.28117
v -0.223377 1.238297 0.281273
v -0.225338 1.233464 0.281239
v -0.219921 1.222288 0.366385
v -0.213964 1.222242 0.366401
v -0.213964 1.219317 0.363706
v -0.22719 1.219379 0.363793
v -0.226807 1.222345 0.366365
v -0.223804 1.22232 0.366374
v -0.227154 1.230408 0.366329
v -0.226569 1.234292 0.366637
v -0.22448 1.239025 0.366423
v -0.219087 1.226955 0.806202
v -0.219599 1.224644 0.806202
v -0.219917 1.224493 0.806217
v -0.219917 1.226611 0.806222
v -0.219917 1.228728 0.806227
v -0.219015 1.230381 0.806231
v -0.222155 1.16306 0.183064
v -0.222871 1.1644 0.191637
v -0.22325 1.165668 0.202408
v -0.213964 1.238374 0.550653
v -0.213964 1.238275 0.54998
v -0.21639 1.238258 0.549962
v -0.218815 1.238238 0.549962
v -0.218959 1.238369 0.550685
v -0.218826 1.238237 0.544456
v -0.218826 1.238237 0.540019
v -0.218826 1.238237 0.535631
v -0.221275 1.236721 0.535618
v -0.221275 1.236721 0.54841
v -0.218826 1.238237 0.548423
v -0.221275 1.236721 0.532402
v -0.218815 1.238238 0.532484
v -0.218815 1.238238 0.529052
v -0.218815 1.238238 0.479395
v -0.218815 1.238238 0.463122
v -0.21883 1.238182 0.455383
v -0.222593 1.237392 0.455502
v -0.218819 1.24341 0.536119
v -0.218815 1.243398 0.534934
v -0.218815 1.242616 0.534562
v -0.218815 1.242509 0.548454
v -0.218815 1.243651 0.548052
v -0.218818 1.243469 0.547243
v -0.218819 1.243495 0.544263
v -0.218819 1.243454 0.540043
v -0.218823 1.240051 0.540444
v -0.218823 1.240945 0.540444
v -0.218821 1.241653 0.54106
v -0.21882 1.242084 0.541985
v -0.218821 1.24193 0.542878
v -0.218822 1.241284 0.543617
v -0.218792 1.240763 0.543912
v -0.218815 1.239754 0.543894
v -0.218825 1.238973 0.543494
v -0.218825 1.238634 0.54257
v -0.218825 1.238727 0.541677
v -0.218825 1.239158 0.540875
v -0.218353 1.239352 0.541896
v -0.218353 1.239296 0.54244
v -0.218352 1.239503 0.543004
v -0.218346 1.239979 0.543248
v -0.218333 1.240594 0.543259
v -0.218351 1.240911 0.543079
v -0.21835 1.241306 0.542628
v -0.21835 1.2414 0.542083
v -0.21835 1.241137 0.54152
v -0.218351 1.240704 0.541145
v -0.218351 1.24016 0.541145
v -0.218352 1.239615 0.541407
v -0.216165 1.243495 0.534963
v -0.21626 1.244566 0.535681
v -0.216208 1.245684 0.536588
v -0.216328 1.246355 0.540093
v -0.216452 1.246354 0.544153
v -0.216359 1.245778 0.546496
v -0.216396 1.244572 0.54753
v -0.216452 1.243652 0.548056
v -0.216439 1.242548 0.548445
v -0.216162 1.242538 0.53451
v -0.221701 1.239012 0.463623
v -0.215382 1.238729 0.463382
v -0.213964 1.238666 0.463329
v -0.215921 1.23857 0.47921
v -0.221829 1.238878 0.479207
v -0.221841 1.243602 0.47952
v -0.221713 1.243736 0.463936
v -0.221709 1.24229 0.46384
v -0.196586 1.222448 0.366329
v -0.196586 1.213708 0.36583
v -0.196135 1.209579 0.361258
v -0.196135 1.217009 0.361898
v -0.196331 1.219378 0.363829
v -0.20312 1.169562 0.265837
v -0.200619 1.171996 0.266324
v -0.196135 1.176359 0.267198
v -0.195909 1.177304 0.284581
v -0.20297 1.170508 0.284581
v -0.204208 1.168535 0.255069
v -0.204059 1.168339 0.23947
v -0.203653 1.16771 0.2243
v -0.203706 1.167524 0.215522
v -0.201507 1.170424 0.218689
v -0.201085 1.170904 0.224039
v -0.20042 1.172111 0.261852
v -0.195683 1.223487 0.254531
v -0.196361 1.22305 0.279006
v -0.196096 1.221085 0.283518
v -0.195909 1.21736 0.286691
v -0.196135 1.217734 0.248856
v -0.204544 1.166865 0.203342
v -0.197758 1.172952 0.203475
v -0.197038 1.174968 0.216765
v -0.199089 1.158894 0.155569
v -0.198174 1.17044 0.155051
v -0.196333 1.180514 0.154532
v -0.197188 1.193031 0.154014
v -0.198863 1.198574 0.166707
v -0.198863 1.202601 0.176957
v -0.198863 1.190328 0.176934
v -0.198863 1.180499 0.176911
v -0.198863 1.169197 0.176887
v -0.198863 1.164605 0.166472
v -0.198863 1.169857 0.183064
v -0.198863 1.181141 0.18317
v -0.197038 1.186112 0.215116
v -0.201387 1.210782 0.1835
v -0.198884 1.211559 0.187399
v -0.198884 1.212116 0.191434
v -0.198884 1.212551 0.194792
v -0.198884 1.212442 0.197638
v -0.197038 1.215595 0.234685
v -0.197038 1.207437 0.233765
v -0.198863 1.202797 0.18338
v -0.201387 1.209151 0.176981
v -0.201387 1.210795 0.17709
v -0.196327 1.20914 0.248151
v -0.197038 1.218132 0.235593
v -0.20421 1.22161 0.508222
v -0.20362 1.214573 0.507515
v -0.200638 1.214154 0.439005
v -0.201367 1.222065 0.43936
v -0.203424 1.221731 0.454606
v -0.198666 1.22227 0.400325
v -0.20216 1.22227 0.400325
v -0.2024 1.222233 0.405789
v -0.202475 1.222221 0.407502
v -0.202614 1.222199 0.412728
v -0.204312 1.222193 0.413949
v -0.205863 1.222065 0.43936
v -0.201075 1.236496 0.235589
v -0.201075 1.218114 0.235589
v -0.213964 1.218096 0.235584
v -0.213964 1.228115 0.235584
v -0.213964 1.232585 0.235584
v -0.200534 1.239422 0.281273
v -0.20048 1.232605 0.282444
v -0.200473 1.227411 0.282419
v -0.200469 1.224182 0.282404
v -0.200463 1.220571 0.282387
v -0.200623 1.22305 0.279006
v -0.200623 1.241433 0.279006
v -0.204879 1.2274 0.43936
v -0.205342 1.227588 0.454513
v -0.205815 1.222867 0.455003
v -0.205915 1.222069 0.455105
v -0.205667 1.221971 0.553893
v -0.207456 1.22042 0.716548
v -0.206455 1.220027 0.71677
v -0.206896 1.220039 0.715461
v -0.205122 1.221461 0.553896
v -0.205122 1.221969 0.553893
v -0.205122 1.222634 0.55389
v -0.206897 1.22094 0.715579
v -0.206455 1.220928 0.716763
v -0.206455 1.222945 0.716745
v -0.206455 1.225522 0.72552
v -0.206455 1.222417 0.725546
v -0.208334 1.218587 0.825111
v -0.206184 1.213348 0.825089
v -0.205361 1.211458 0.825081
v -0.205309 1.211388 0.821993
v -0.207459 1.218556 0.822026
v -0.208548 1.218716 0.837674
v -0.207783 1.21875 0.841054
v -0.205633 1.211817 0.84104
v -0.205576 1.211741 0.837656
v -0.206398 1.213519 0.837661
v -0.19749 1.150641 0.145464
v -0.198393 1.140883 0.135359
v -0.194142 1.154768 0.134516
v -0.194075 1.167179 0.133674
v -0.194785 1.182034 0.132831
v -0.195757 1.18772 0.143423
v -0.199748 1.168139 0.084034
v -0.200743 1.186011 0.082618
v -0.197278 1.177149 0.10585
v -0.195886 1.175974 0.114869
v -0.19446 1.159781 0.116157
v -0.193583 1.146032 0.117446
v -0.198393 1.13081 0.118735
v -0.198393 1.130816 0.111051
v -0.199748 1.135812 0.086866
v -0.199748 1.152713 0.08545
v -0.198393 1.133062 0.126419
v -0.19506 1.177056 0.123887
v -0.200935 1.222891 0.365087
v -0.200848 1.226827 0.365085
v -0.200773 1.23252 0.364006
v -0.20216 1.229844 0.400325
v -0.206465 1.221429 0.532586
v -0.206465 1.221429 0.535803
v -0.206465 1.221429 0.548594
v -0.206465 1.221429 0.550064
v -0.206273 1.221434 0.550755
v -0.206273 1.22144 0.552622
v -0.206463 1.221457 0.553276
v -0.203549 1.220591 0.282396
v -0.203541 1.223538 0.282409
v -0.203525 1.226668 0.282421
v -0.203485 1.232149 0.282444
v -0.203357 1.239441 0.281251
v -0.213964 1.241433 0.279006
v -0.208007 1.222288 0.366385
v -0.203833 1.222872 0.365082
v -0.203531 1.219366 0.363774
v -0.207921 1.240831 0.366329
v -0.203448 1.239025 0.366423
v -0.203623 1.234356 0.365558
v -0.203759 1.226621 0.365095
v -0.20801 1.224493 0.806217
v -0.208329 1.224644 0.806202
v -0.208841 1.226955 0.806202
v -0.208913 1.230381 0.806231
v -0.20801 1.228728 0.806227
v -0.20801 1.226611 0.806222
v -0.204677 1.165668 0.202408
v -0.205056 1.1644 0.191637
v -0.205773 1.16306 0.183064
v -0.208968 1.238369 0.550685
v -0.209113 1.238238 0.549962
v -0.211538 1.238258 0.549962
v -0.209102 1.238237 0.535631
v -0.209102 1.238237 0.540019
v -0.209102 1.238237 0.544456
v -0.209102 1.238237 0.548423
v -0.206652 1.236721 0.54841
v -0.206652 1.236721 0.535618
v -0.209113 1.238238 0.479395
v -0.209113 1.238238 0.529052
v -0.209113 1.238238 0.532484
v -0.206652 1.236721 0.532402
v -0.205335 1.237392 0.455502
v -0.209097 1.238182 0.455383
v -0.209113 1.238238 0.463122
v -0.209113 1.242616 0.534562
v -0.209113 1.243398 0.534934
v -0.209109 1.24341 0.536119
v -0.209109 1.243469 0.547243
v -0.209113 1.243651 0.548052
v -0.209113 1.242509 0.548454
v -0.209109 1.243454 0.540043
v -0.209109 1.243495 0.544263
v -0.209135 1.240763 0.543912
v -0.209106 1.241284 0.543617
v -0.209107 1.24193 0.542878
v -0.209107 1.242084 0.541985
v -0.209107 1.241653 0.54106
v -0.209105 1.240945 0.540444
v -0.209104 1.240051 0.540444
v -0.209103 1.239158 0.540875
v -0.209102 1.238727 0.541677
v -0.209102 1.238634 0.54257
v -0.209103 1.238973 0.543494
v -0.209112 1.239754 0.543894
v -0.209578 1.241137 0.54152
v -0.209578 1.2414 0.542083
v -0.209578 1.241306 0.542628
v -0.209577 1.240911 0.543079
v -0.209595 1.240594 0.543259
v -0.209581 1.239979 0.543248
v -0.209576 1.239503 0.543004
v -0.209575 1.239296 0.54244
v -0.209575 1.239352 0.541896
v -0.209576 1.239615 0.541407
v -0.209576 1.24016 0.541145
v -0.209577 1.240704 0.541145
v -0.211532 1.244572 0.54753
v -0.211568 1.245778 0.546496
v -0.211476 1.246354 0.544153
v -0.211599 1.246355 0.540093
v -0.21172 1.245684 0.536588
v -0.211668 1.244566 0.535681
v -0.211763 1.243495 0.534963
v -0.211765 1.242538 0.53451
v -0.211489 1.242548 0.548445
v -0.211476 1.243652 0.548056
v -0.212545 1.238729 0.463382
v -0.206226 1.239012 0.463623
v -0.206098 1.238878 0.479207
v -0.212007 1.23857 0.47921
v -0.206219 1.24229 0.46384
v -0.206215 1.243736 0.463936
v -0.206087 1.243602 0.47952
v -0.200508 1.227965 0.290329
v -0.20054 1.227966 0.299228
v -0.20057 1.227967 0.307617
v -0.200595 1.232515 0.314447
v -0.203697 1.232111 0.363842
v -0.20357 1.232078 0.314709
v -0.203552 1.227526 0.307955
v -0.20353 1.22752 0.29967
v -0.203507 1.227515 0.290874
v -0.22693 1.229855 0.279006
v -0.196135 1.197029 0.264943
v -0.195909 1.197315 0.285637
v -0.195909 1.188046 0.285109
v -0.196135 1.187431 0.267579
v -0.198863 1.190952 0.183277
v -0.197038 1.195784 0.217892
v -0.195909 1.209028 0.286164
v -0.196003 1.176206 0.261654
v -0.196702 1.17513 0.222647
v -0.218812 1.22405 0.856054
v -0.219334 1.221862 0.85605
v -0.219321 1.221875 0.895308
v -0.219216 1.223812 0.895311
v -0.223139 1.198603 0.081202
v -0.228958 1.176215 -0.138441
v -0.229862 1.161841 -0.136784
v -0.222399 1.129015 0.086866
v -0.229862 1.061939 -0.124011
v -0.22352 1.055142 -0.124011
v -0.223302 1.124019 0.111051
v -0.229535 1.18801 0.104117
v -0.229535 1.186445 0.11358
v -0.223302 1.124014 0.118735
v -0.222155 1.162401 0.176887
v -0.222155 1.157808 0.166472
v -0.222003 1.152097 0.155569
v -0.226554 1.205312 0.166785
v -0.227462 1.199826 0.153495
v -0.223904 1.143844 0.145464
v -0.223302 1.134086 0.135359
v -0.228815 1.195497 0.142742
v -0.229535 1.191167 0.131989
v -0.221473 1.217348 0.716658
v -0.22103 1.21733 0.715461
v -0.218629 1.190942 0.716185
v -0.221473 1.19556 0.716319
v -0.221027 1.195522 0.715457
v -0.218636 1.191907 0.715322
v -0.224506 1.173961 0.364331
v -0.231341 1.180758 0.364331
v -0.231792 1.180559 0.359337
v -0.224808 1.173762 0.359337
v -0.227455 1.217734 0.248856
v -0.227757 1.223487 0.254531
v -0.231792 1.187431 0.267579
v -0.217896 1.196105 0.805887
v -0.219917 1.199719 0.80602
v -0.221017 1.196679 0.741436
v -0.218629 1.193065 0.741302
v -0.219917 1.218393 0.806165
v -0.219917 1.222375 0.806213
v -0.221017 1.222509 0.741878
v -0.221017 1.217734 0.741768
v -0.221473 1.231012 0.73496
v -0.221017 1.229524 0.735813
v -0.219763 1.231485 0.735814
v -0.219826 1.232961 0.734935
v -0.22312 1.175328 0.398597
v -0.229262 1.182125 0.398597
v -0.229262 1.213916 0.399893
v -0.223302 1.126265 0.126419
v -0.229535 1.187136 0.123043
v -0.221473 1.231154 0.728021
v -0.219826 1.233163 0.727996
v -0.221017 1.196422 0.73565
v -0.218629 1.192806 0.735492
v -0.221017 1.222475 0.735744
v -0.221017 1.217641 0.735727
v -0.222805 1.234439 0.55382
v -0.221029 1.231145 0.715631
v -0.219774 1.233276 0.715642
v -0.221499 1.23703 0.553794
v -0.218629 1.191334 0.724964
v -0.221473 1.195951 0.725098
v -0.221473 1.217483 0.725434
v -0.221797 1.217503 0.72671
v -0.221797 1.222425 0.726822
v -0.218783 1.19078 0.726239
v -0.22195 1.195706 0.726373
v -0.221473 1.231386 0.716694
v -0.221473 1.231206 0.72547
v -0.219826 1.233238 0.725445
v -0.219826 1.233493 0.716669
v -0.218629 1.191757 0.734458
v -0.221473 1.196374 0.734592
v -0.221473 1.196065 0.72765
v -0.218629 1.191448 0.727516
v -0.221473 1.217629 0.734925
v -0.221473 1.22247 0.735036
v -0.221473 1.222432 0.728098
v -0.221473 1.217522 0.727985
v -0.221928 1.231399 0.726745
v -0.219958 1.233419 0.726721
v -0.223723 1.203385 0.727762
v -0.223623 1.209231 0.727874
v -0.223946 1.209199 0.726598
v -0.224046 1.203341 0.726486
v -0.223723 1.203627 0.734703
v -0.223623 1.209405 0.734814
v -0.223623 1.209167 0.725322
v -0.223723 1.203296 0.72521
v -0.223623 1.208947 0.716545
v -0.223723 1.20299 0.716432
v -0.223267 1.203866 0.741547
v -0.223166 1.209577 0.741658
v -0.223166 1.209427 0.735697
v -0.223267 1.203661 0.735676
v -0.229262 1.192889 0.399029
v -0.229262 1.202181 0.399461
v -0.231341 1.201586 0.36533
v -0.231341 1.191909 0.364831
v -0.222167 1.206111 0.806068
v -0.222067 1.21103 0.806117
v -0.232019 1.188046 0.285109
v -0.231792 1.190399 0.359977
v -0.231792 1.198767 0.360618
v -0.223179 1.20892 0.715459
v -0.223277 1.202956 0.715459
v -0.216355 1.227486 0.856062
v -0.217309 1.227109 0.856062
v -0.217296 1.22652 0.895319
v -0.216341 1.226854 0.895319
v -0.229862 1.121983 -0.132527
v -0.229862 1.082942 -0.127294
v -0.216457 1.203637 0.856046
v -0.217256 1.20025 0.855927
v -0.216409 1.200783 0.895135
v -0.216444 1.203552 0.895304
v -0.231924 1.176206 0.261654
v -0.21809 1.21624 0.856046
v -0.216434 1.214735 0.856046
v -0.216421 1.215567 0.895304
v -0.218077 1.216899 0.895304
v -0.221797 1.225518 0.726796
v -0.221797 1.228349 0.726771
v -0.221473 1.228364 0.725495
v -0.221473 1.225514 0.728072
v -0.221473 1.228334 0.728046
v -0.221473 1.228468 0.71672
v -0.222805 1.225787 0.553871
v -0.22103 1.222965 0.71559
v -0.221029 1.228218 0.715616
v -0.222805 1.230113 0.553845
v -0.221473 1.225492 0.735011
v -0.221473 1.228252 0.734985
v -0.222293 1.234435 0.553199
v -0.222293 1.230109 0.553225
v -0.222145 1.221966 0.553273
v -0.221017 1.224705 0.735755
v -0.221017 1.226773 0.73576
v -0.22729 1.202863 0.43865
v -0.22729 1.183694 0.437939
v -0.22729 1.194015 0.438294
v -0.221805 1.176897 0.437939
v -0.219817 1.179646 0.506853
v -0.224308 1.186443 0.506853
v -0.224308 1.195987 0.507073
v -0.224308 1.204058 0.507294
v -0.222805 1.20488 0.572045
v -0.222805 1.214861 0.567668
v -0.222805 1.188334 0.563281
v -0.222805 1.197344 0.569414
v -0.218816 1.181538 0.554272
v -0.213964 1.181538 0.554272
v -0.213964 1.179646 0.506853
v -0.213964 1.176897 0.437939
v -0.213964 1.175328 0.398597
v -0.221277 1.236749 0.553092
v -0.218815 1.238266 0.553174
v -0.218959 1.238376 0.552551
v -0.22142 1.236804 0.552474
v -0.218204 1.225768 0.856058
v -0.21819 1.225333 0.895316
v -0.219229 1.219085 0.856046
v -0.219216 1.219418 0.895304
v -0.22352 1.082942 -0.127294
v -0.213964 1.082942 -0.127294
v -0.213964 1.055142 -0.124011
v -0.22352 1.161841 -0.136784
v -0.22352 1.121983 -0.132527
v -0.213964 1.161841 -0.136784
v -0.213964 1.121983 -0.132527
v -0.213964 1.188265 0.72765
v -0.213964 1.1879 0.726374
v -0.217624 1.234131 0.727995
v -0.217755 1.234712 0.72672
v -0.213964 1.234131 0.727995
v -0.213964 1.234493 0.72672
v -0.213964 1.188575 0.734592
v -0.217624 1.233929 0.734934
v -0.213964 1.233929 0.734934
v -0.217624 1.234206 0.725444
v -0.213964 1.234206 0.725444
v -0.213964 1.188151 0.725098
v -0.213964 1.18776 0.716319
v -0.217624 1.234462 0.716669
v -0.213964 1.234462 0.716669
v -0.213964 1.189883 0.741436
v -0.213964 1.189633 0.73583
v -0.219763 1.231312 0.737933
v -0.217624 1.232101 0.737933
v -0.217624 1.232275 0.735814
v -0.213964 1.232101 0.737933
v -0.213964 1.232273 0.735877
v -0.226853 1.217664 0.236431
v -0.223542 1.218109 0.245573
v -0.219932 1.218104 0.243374
v -0.226853 1.218114 0.247141
v -0.222133 1.21478 0.197531
v -0.222133 1.214891 0.194735
v -0.213964 1.214776 0.197424
v -0.213964 1.214889 0.194679
v -0.222133 1.214455 0.191366
v -0.213964 1.214453 0.191298
v -0.222133 1.213898 0.187369
v -0.213964 1.213897 0.187339
v -0.21963 1.213123 0.1835
v -0.213964 1.213123 0.1835
v -0.21963 1.213137 0.177079
v -0.21963 1.211493 0.176981
v -0.213964 1.213139 0.177068
v -0.213964 1.211493 0.176981
v -0.213964 1.16751 0.215389
v -0.213964 1.16684 0.203197
v -0.226853 1.215595 0.234685
v -0.213964 1.215595 0.234685
v -0.213964 1.152097 0.155569
v -0.213964 1.143844 0.145464
v -0.223245 1.202167 0.153495
v -0.223904 1.197837 0.142742
v -0.213964 1.202167 0.153495
v -0.213964 1.197837 0.142742
v -0.213964 1.162401 0.176887
v -0.213964 1.157808 0.166472
v -0.222351 1.207653 0.166785
v -0.213964 1.207653 0.166785
v -0.213964 1.126265 0.126419
v -0.213964 1.124014 0.118735
v -0.223302 1.189477 0.123043
v -0.223302 1.188785 0.11358
v -0.213964 1.189477 0.123043
v -0.213964 1.188785 0.11358
v -0.213964 1.134086 0.135359
v -0.223302 1.193508 0.131989
v -0.213964 1.193508 0.131989
v -0.22352 1.17946 -0.138441
v -0.213964 1.17946 -0.138441
v -0.218997 1.20028 0.081202
v -0.213964 1.20028 0.081202
v -0.223302 1.190351 0.104117
v -0.213964 1.190351 0.104117
v -0.220096 1.227835 0.243374
v -0.227455 1.217009 0.361898
v -0.227606 1.21736 0.286691
v -0.216891 1.222375 0.806213
v -0.217624 1.222509 0.741878
v -0.219134 1.227892 0.741866
v -0.219646 1.22558 0.741866
v -0.217631 1.234071 0.715645
v -0.213964 1.234074 0.715547
v -0.227081 1.227276 0.248856
v -0.226478 1.227543 0.247141
v -0.213964 1.173961 0.364331
v -0.213964 1.192923 0.80602
v -0.213964 1.169562 0.265837
v -0.213964 1.168525 0.255127
v -0.213964 1.170508 0.284581
v -0.213964 1.173762 0.359337
v -0.213964 1.188727 0.715509
v -0.213964 1.16306 0.183064
v -0.213964 1.124019 0.111051
v -0.213964 1.129015 0.086866
v -0.218816 1.238764 0.553794
v -0.213964 1.238764 0.553794
v -0.213964 1.238307 0.553174
v -0.221017 1.226701 0.741302
v -0.221017 1.229401 0.739786
v -0.221017 1.224687 0.741853
v -0.213964 1.191799 0.809088
v -0.218122 1.194981 0.808954
v -0.220144 1.228656 0.841082
v -0.219937 1.22863 0.853227
v -0.218212 1.230283 0.853231
v -0.218419 1.230308 0.841086
v -0.222838 1.211099 0.809179
v -0.220688 1.218425 0.809224
v -0.220947 1.199864 0.809088
v -0.222937 1.206218 0.809133
v -0.220688 1.228722 0.809282
v -0.218963 1.231048 0.809287
v -0.220688 1.222369 0.809269
v -0.217975 1.195585 0.821793
v -0.220729 1.200468 0.821927
v -0.220469 1.222342 0.822058
v -0.222719 1.206665 0.82196
v -0.220469 1.228695 0.822072
v -0.218745 1.231021 0.822076
v -0.213964 1.192404 0.821927
v -0.213964 1.197549 0.856046
v -0.217621 1.197057 0.853069
v -0.213964 1.193875 0.853203
v -0.219937 1.218875 0.853211
v -0.222087 1.212091 0.853208
v -0.216467 1.208812 0.856046
v -0.222186 1.207753 0.853205
v -0.220197 1.20194 0.853203
v -0.219937 1.222277 0.853213
v -0.213964 1.193817 0.825021
v -0.21768 1.196999 0.824887
v -0.220417 1.200614 0.825021
v -0.222666 1.206772 0.825051
v -0.219594 1.226985 0.825154
v -0.218692 1.228637 0.825158
v -0.219594 1.222336 0.82514
v -0.217538 1.197592 0.837487
v -0.220202 1.201207 0.837621
v -0.21938 1.222309 0.837692
v -0.21938 1.226959 0.837706
v -0.218477 1.228611 0.83771
v -0.222452 1.20721 0.837639
v -0.213964 1.194409 0.837621
v -0.213964 1.193302 0.84101
v -0.217759 1.196483 0.840877
v -0.220404 1.201366 0.84101
v -0.222394 1.207329 0.841025
v -0.220144 1.222302 0.841068
v -0.216974 1.231513 0.809287
v -0.213964 1.231513 0.809287
v -0.213964 1.230847 0.806231
v -0.216991 1.230847 0.806231
v -0.216901 1.231487 0.822076
v -0.213964 1.231487 0.822076
v -0.213964 1.227486 0.856062
v -0.213964 1.230748 0.853231
v -0.216355 1.230748 0.853231
v -0.216883 1.229103 0.825158
v -0.213964 1.229103 0.825158
v -0.216532 1.229076 0.83771
v -0.213964 1.229076 0.83771
v -0.216494 1.230773 0.841086
v -0.213964 1.230773 0.841086
v -0.220144 1.22442 0.841073
v -0.21938 1.223665 0.837696
v -0.220144 1.226538 0.841077
v -0.21938 1.225782 0.837701
v -0.216454 1.208728 0.895304
v -0.219594 1.223691 0.825145
v -0.219594 1.225809 0.82515
v -0.220469 1.22446 0.822063
v -0.220469 1.226578 0.822067
v -0.219937 1.224395 0.853218
v -0.219937 1.226513 0.853223
v -0.220688 1.224486 0.809274
v -0.220688 1.226604 0.809278
v -0.217044 1.227906 0.806202
v -0.217091 1.228843 0.741866
v -0.231226 1.17513 0.222647
v -0.213964 1.228818 0.806213
v -0.213964 1.228953 0.741878
v -0.222293 1.225783 0.553251
v -0.222293 1.222631 0.553269
v -0.217307 1.235122 0.43936
v -0.213964 1.235122 0.43936
v -0.213964 1.235314 0.413981
v -0.218143 1.235324 0.414015
v -0.223288 1.240308 0.279006
v -0.213964 1.24187 0.254531
v -0.22374 1.240745 0.254531
v -0.218621 1.240652 0.400325
v -0.213964 1.240652 0.400325
v -0.213964 1.240831 0.366329
v -0.220007 1.240831 0.366329
v -0.225768 1.229844 0.400325
v -0.227381 1.229652 0.254531
v -0.225531 1.229655 0.405794
v -0.213964 1.21968 0.283667
v -0.218328 1.236847 0.407345
v -0.213964 1.236841 0.407237
v -0.213964 1.240379 0.40603
v -0.218391 1.240553 0.405806
v -0.222795 1.23621 0.407474
v -0.222359 1.235386 0.412772
v -0.218185 1.236668 0.412753
v -0.213964 1.236665 0.412316
v -0.22153 1.234198 0.414356
v -0.222861 1.237896 0.405897
v -0.221238 1.234137 0.439455
v -0.216843 1.23487 0.454539
v -0.213964 1.234804 0.453634
v -0.221316 1.23395 0.454624
v -0.213964 1.238739 0.454985
v -0.224947 1.233727 0.406106
v -0.224878 1.232229 0.407732
v -0.222546 1.234304 0.455476
v -0.22329 1.230533 0.414286
v -0.222462 1.230532 0.439669
v -0.224737 1.232035 0.413049
v -0.223093 1.238461 0.400421
v -0.225459 1.228716 0.40746
v -0.225318 1.228151 0.412734
v -0.223872 1.227213 0.413961
v -0.222 1.230343 0.454828
v -0.223102 1.229524 0.455545
v -0.223102 1.225484 0.455539
v -0.225182 1.234292 0.400634
v -0.222421 1.223079 0.455554
v -0.222483 1.234454 0.55255
v -0.222483 1.230092 0.552571
v -0.219637 1.223859 0.741951
v -0.21959 1.222922 0.806287
v -0.213964 1.167683 0.224261
v -0.222556 1.163192 0.220792
v -0.213964 1.163173 0.22076
v -0.213964 1.164382 0.191509
v -0.213964 1.165675 0.202322
v -0.219741 1.16014 0.198604
v -0.213964 1.160154 0.198568
v -0.22043 1.158618 0.217944
v -0.213964 1.158594 0.217934
v -0.213964 1.164573 0.215093
v -0.222503 1.164563 0.215182
v -0.213964 1.168324 0.239459
v -0.213964 1.158486 0.214227
v -0.220377 1.158499 0.214279
v -0.219044 1.153993 0.217645
v -0.213964 1.153969 0.217635
v -0.213964 1.15386 0.213927
v -0.218991 1.153873 0.21398
v -0.217478 1.147928 0.215585
v -0.213964 1.147877 0.215241
v -0.213964 1.13968 0.222146
v -0.216761 1.140013 0.221666
v -0.218 1.149811 0.218688
v -0.213964 1.15011 0.218201
v -0.213964 1.141914 0.223712
v -0.21745 1.141965 0.223405
v -0.219363 1.159699 0.193769
v -0.219357 1.151743 0.194105
v -0.219736 1.152185 0.198218
v -0.213964 1.159691 0.193711
v -0.213964 1.152198 0.198188
v -0.219731 1.149169 0.198621
v -0.213964 1.149159 0.198589
v -0.213964 1.151735 0.194056
v -0.219352 1.146161 0.19578
v -0.213964 1.146123 0.195748
v -0.213964 1.140777 0.200369
v -0.219347 1.140823 0.200389
v -0.213964 1.144498 0.202226
v -0.219726 1.144515 0.202254
v -0.219721 1.141735 0.206085
v -0.213964 1.14172 0.206078
v -0.213964 1.138507 0.205068
v -0.219342 1.138547 0.20508
v -0.219342 1.136953 0.210917
v -0.213964 1.136917 0.210909
v -0.213964 1.136158 0.216005
v -0.219341 1.13619 0.216002
v -0.219721 1.139762 0.211571
v -0.213964 1.139748 0.211565
v -0.213964 1.138741 0.215751
v -0.21972 1.138754 0.215752
v -0.219719 1.138695 0.224891
v -0.213964 1.138683 0.22489
v -0.21934 1.136385 0.225141
v -0.213964 1.136356 0.225144
v -0.213964 1.138061 0.234676
v -0.21934 1.138083 0.234656
v -0.213964 1.140627 0.241759
v -0.219338 1.140648 0.241739
v -0.219718 1.139804 0.233097
v -0.213964 1.139794 0.233103
v -0.213964 1.14236 0.240185
v -0.219717 1.142371 0.24018
v -0.219716 1.14556 0.244266
v -0.213964 1.145554 0.244276
v -0.219337 1.144842 0.246476
v -0.213964 1.144833 0.246503
v -0.213964 1.150458 0.249519
v -0.219337 1.150462 0.249492
v -0.219716 1.150834 0.247282
v -0.219336 1.158236 0.250693
v -0.219715 1.157636 0.248533
v -0.213964 1.150831 0.247292
v -0.213964 1.157638 0.248544
v -0.219715 1.161644 0.246505
v -0.213964 1.161643 0.246524
v -0.213964 1.158244 0.250719
v -0.219336 1.161758 0.250612
v -0.213964 1.16176 0.250664
v -0.213964 1.166172 0.25135
v -0.222839 1.16617 0.251255
v -0.213964 1.166055 0.243712
v -0.223218 1.166056 0.243676
v -0.222483 1.225766 0.552596
v -0.222483 1.222614 0.552615
v -0.213964 1.238381 0.55252
v -0.222336 1.221949 0.552619
v -0.222336 1.221942 0.550752
v -0.221419 1.236798 0.550607
v -0.222483 1.234448 0.550683
v -0.222483 1.225759 0.550729
v -0.222483 1.222607 0.550747
v -0.222483 1.230085 0.550704
v -0.222128 1.221938 0.550061
v -0.221275 1.236721 0.54988
v -0.222292 1.234407 0.549987
v -0.222292 1.225755 0.550038
v -0.222292 1.222603 0.550056
v -0.222292 1.230081 0.550013
v -0.222292 1.234407 0.548518
v -0.222292 1.225755 0.548568
v -0.222292 1.222603 0.548587
v -0.222292 1.230081 0.548543
v -0.222128 1.221938 0.548591
v -0.222292 1.225755 0.535777
v -0.222292 1.222603 0.535795
v -0.222292 1.230081 0.535752
v -0.222128 1.221938 0.5358
v -0.218815 1.245757 0.546496
v -0.218815 1.246334 0.54416
v -0.222292 1.234407 0.535726
v -0.222292 1.222603 0.532579
v -0.222128 1.221938 0.532583
v -0.218815 1.245668 0.536588
v -0.218815 1.244503 0.535665
v -0.222292 1.234407 0.532509
v -0.222292 1.230081 0.532535
v -0.222292 1.225755 0.532561
v -0.222155 1.222414 0.455539
v -0.216151 1.238261 0.532484
v -0.216136 1.23828 0.529038
v -0.218817 1.244501 0.536307
v -0.218815 1.244606 0.547506
v -0.218817 1.244499 0.546934
v -0.218817 1.24466 0.540048
v -0.218815 1.246334 0.540056
v -0.218817 1.244644 0.544222
v -0.216452 1.246354 0.544153
v -0.213964 1.242562 0.548481
v -0.213964 1.242552 0.534546
v -0.213964 1.242593 0.532433
v -0.216144 1.242583 0.532194
v -0.213964 1.243761 0.463964
v -0.215617 1.243736 0.463936
v -0.215638 1.247244 0.463966
v -0.213964 1.24727 0.463994
v -0.216119 1.242648 0.528844
v -0.215745 1.243602 0.47952
v -0.213964 1.242658 0.529106
v -0.213964 1.243628 0.479548
v -0.221733 1.247244 0.463966
v -0.215615 1.242468 0.463785
v -0.213964 1.242438 0.463872
v -0.215766 1.247111 0.47955
v -0.213964 1.247136 0.479578
v -0.221862 1.247111 0.47955
v -0.216954 1.200809 0.941804
v -0.213964 1.197062 0.94178
v -0.213964 1.196993 0.963396
v -0.216943 1.200738 0.96342
v -0.213964 1.208728 0.895304
v -0.213964 1.213973 0.895304
v -0.218047 1.217148 0.97426
v -0.216147 1.215875 0.974265
v -0.216097 1.21593 0.988394
v -0.218041 1.217193 0.988388
v -0.213964 1.226245 0.947572
v -0.216321 1.226152 0.947572
v -0.2158 1.226668 0.94913
v -0.213964 1.226773 0.94913
v -0.219535 1.221539 0.974264
v -0.219309 1.219371 0.97426
v -0.219325 1.219363 0.988388
v -0.219574 1.221479 0.988392
v -0.219186 1.22325 0.974268
v -0.219181 1.223148 0.988396
v -0.218161 1.224591 0.974272
v -0.218155 1.224458 0.9884
v -0.217266 1.225451 0.97428
v -0.21726 1.22526 0.988411
v -0.213964 1.198082 0.895255
v -0.213964 1.226854 0.895319
v -0.215584 1.218446 0.988388
v -0.216306 1.220528 0.988388
v -0.213964 1.225768 0.988404
v -0.216306 1.225603 0.988404
v -0.216306 1.224458 0.9884
v -0.213964 1.215143 0.988388
v -0.21469 1.216662 0.988388
v -0.213964 1.201979 0.895135
v -0.213964 1.203552 0.895304
v -0.216306 1.221838 0.988392
v -0.216306 1.223148 0.988396
v -0.213964 1.202471 0.96342
v -0.213964 1.202541 0.941804
v -0.216311 1.225793 0.974275
v -0.213964 1.214966 0.97426
v -0.213964 1.225934 0.974275
v -0.216239 1.215771 0.94756
v -0.213964 1.21463 0.947556
v -0.213964 1.213872 0.949115
v -0.216011 1.215128 0.949118
v -0.217276 1.225813 0.947576
v -0.217203 1.226289 0.949134
v -0.218171 1.224842 0.947569
v -0.218519 1.225215 0.949127
v -0.219196 1.22344 0.947564
v -0.220026 1.223656 0.949122
v -0.219277 1.219387 0.947556
v -0.218057 1.217064 0.947556
v -0.218691 1.216568 0.949115
v -0.220149 1.219151 0.949115
v -0.219463 1.221653 0.947561
v -0.220425 1.221669 0.949119
v -0.215787 1.226316 0.972613
v -0.215695 1.229701 0.972661
v -0.215708 1.230052 0.949178
v -0.213964 1.214201 0.972598
v -0.215891 1.215231 0.972602
v -0.21719 1.225935 0.972618
v -0.218505 1.224968 0.97261
v -0.220013 1.223469 0.972606
v -0.218677 1.216651 0.972598
v -0.22019 1.219135 0.972598
v -0.220519 1.221558 0.972602
v -0.213964 1.226468 0.972613
v -0.213964 1.229854 0.972661
v -0.213964 1.232372 0.972696
v -0.215596 1.232219 0.972696
v -0.213964 1.230158 0.949178
v -0.215609 1.232571 0.954573
v -0.213964 1.232677 0.954573
v -0.215707 1.234587 0.972729
v -0.213964 1.234739 0.972729
v -0.213964 1.240089 0.971309
v -0.215672 1.239935 0.971309
v -0.21572 1.234938 0.960339
v -0.213964 1.235044 0.960339
v -0.213964 1.240394 0.961286
v -0.215685 1.240288 0.961286
v -0.215993 1.200636 0.940756
v -0.213964 1.201832 0.940756
v -0.213964 1.197935 0.940877
v -0.209116 1.22405 0.856054
v -0.208711 1.223812 0.895311
v -0.208607 1.221875 0.895308
v -0.208594 1.221862 0.85605
v -0.198066 1.161841 -0.136784
v -0.198969 1.176215 -0.138441
v -0.204788 1.198603 0.081202
v -0.205529 1.129015 0.086866
v -0.204407 1.055142 -0.124011
v -0.198066 1.061939 -0.124011
v -0.204626 1.124019 0.111051
v -0.198393 1.18801 0.104117
v -0.198393 1.186445 0.11358
v -0.204626 1.124014 0.118735
v -0.205773 1.162401 0.176887
v -0.205773 1.157808 0.166472
v -0.205924 1.152097 0.155569
v -0.200466 1.199826 0.153495
v -0.201373 1.205312 0.166785
v -0.204024 1.143844 0.145464
v -0.204626 1.134086 0.135359
v -0.198393 1.191167 0.131989
v -0.199113 1.195497 0.142742
v -0.206455 1.217348 0.716658
v -0.206897 1.21733 0.715461
v -0.209299 1.190942 0.716185
v -0.209292 1.191907 0.715322
v -0.206901 1.195522 0.715457
v -0.206455 1.19556 0.716319
v -0.203421 1.173961 0.364331
v -0.20312 1.173762 0.359337
v -0.196135 1.180559 0.359337
v -0.196586 1.180758 0.364331
v -0.200473 1.217734 0.248856
v -0.200171 1.223487 0.254531
v -0.210032 1.196105 0.805887
v -0.209299 1.193065 0.741302
v -0.206911 1.196679 0.741436
v -0.20801 1.199719 0.80602
v -0.20801 1.218393 0.806165
v -0.206911 1.217734 0.741768
v -0.206911 1.222509 0.741878
v -0.20801 1.222375 0.806213
v -0.206455 1.231012 0.73496
v -0.208102 1.232961 0.734935
v -0.208165 1.231485 0.735814
v -0.206911 1.229524 0.735813
v -0.204808 1.175328 0.398597
v -0.198666 1.182125 0.398597
v -0.198666 1.213916 0.399893
v -0.204626 1.126265 0.126419
v -0.198393 1.187136 0.123043
v -0.206455 1.231154 0.728021
v -0.208102 1.233163 0.727996
v -0.209299 1.192806 0.735492
v -0.206911 1.196422 0.73565
v -0.206911 1.217641 0.735727
v -0.206911 1.222475 0.735744
v -0.205122 1.234439 0.55382
v -0.206429 1.23703 0.553794
v -0.208154 1.233276 0.715642
v -0.206899 1.231145 0.715631
v -0.209299 1.191334 0.724964
v -0.206455 1.195951 0.725098
v -0.206455 1.217483 0.725434
v -0.206131 1.217503 0.72671
v -0.206131 1.222425 0.726822
v -0.209145 1.19078 0.726239
v -0.205978 1.195706 0.726373
v -0.206455 1.231386 0.716694
v -0.208102 1.233493 0.716669
v -0.208102 1.233238 0.725445
v -0.206455 1.231206 0.72547
v -0.209299 1.191757 0.734458
v -0.209299 1.191448 0.727516
v -0.206455 1.196065 0.72765
v -0.206455 1.196374 0.734592
v -0.206455 1.217629 0.734925
v -0.206455 1.217522 0.727985
v -0.206455 1.222432 0.728098
v -0.206455 1.22247 0.735036
v -0.206 1.231399 0.726745
v -0.20797 1.233419 0.726721
v -0.204205 1.203385 0.727762
v -0.203882 1.203341 0.726486
v -0.203981 1.209199 0.726598
v -0.204305 1.209231 0.727874
v -0.204205 1.203627 0.734703
v -0.204305 1.209405 0.734814
v -0.204205 1.203296 0.72521
v -0.204305 1.209167 0.725322
v -0.204205 1.20299 0.716432
v -0.204305 1.208947 0.716545
v -0.204661 1.203866 0.741547
v -0.204661 1.203661 0.735676
v -0.204761 1.209427 0.735697
v -0.204761 1.209577 0.741658
v -0.198666 1.192889 0.399029
v -0.196586 1.191909 0.364831
v -0.196586 1.201586 0.36533
v -0.198666 1.202181 0.399461
v -0.205761 1.206111 0.806068
v -0.205861 1.21103 0.806117
v -0.196135 1.190399 0.359977
v -0.196135 1.198767 0.360618
v -0.20465 1.202956 0.715459
v -0.204749 1.20892 0.715459
v -0.211573 1.227486 0.856062
v -0.211586 1.226854 0.895319
v -0.210632 1.22652 0.895319
v -0.210619 1.227109 0.856062
v -0.198066 1.082942 -0.127294
v -0.198066 1.121983 -0.132527
v -0.21147 1.203637 0.856046
v -0.211483 1.203552 0.895304
v -0.211519 1.200783 0.895135
v -0.210672 1.20025 0.855927
v -0.209838 1.21624 0.856046
v -0.209851 1.216899 0.895304
v -0.211507 1.215567 0.895304
v -0.211493 1.214735 0.856046
v -0.206131 1.225518 0.726796
v -0.206455 1.228364 0.725495
v -0.206131 1.228349 0.726771
v -0.206455 1.225514 0.728072
v -0.206455 1.228334 0.728046
v -0.206455 1.228468 0.71672
v -0.205122 1.225787 0.553871
v -0.205122 1.230113 0.553845
v -0.206899 1.228218 0.715616
v -0.206898 1.222965 0.715589
v -0.206455 1.225492 0.735011
v -0.206455 1.228252 0.734985
v -0.205635 1.230109 0.553225
v -0.205635 1.234435 0.553199
v -0.205782 1.221966 0.553273
v -0.206911 1.224705 0.735755
v -0.206911 1.226773 0.73576
v -0.200638 1.202863 0.43865
v -0.200638 1.183694 0.437939
v -0.200638 1.194015 0.438294
v -0.206123 1.176897 0.437939
v -0.20811 1.179646 0.506853
v -0.20362 1.186443 0.506853
v -0.20362 1.195987 0.507073
v -0.20362 1.204058 0.507294
v -0.205122 1.20488 0.572045
v -0.205122 1.214861 0.567668
v -0.205122 1.188334 0.563281
v -0.205122 1.197344 0.569414
v -0.209112 1.181538 0.554272
v -0.206651 1.236749 0.553092
v -0.206508 1.236804 0.552474
v -0.208968 1.238376 0.552551
v -0.209112 1.238266 0.553174
v -0.209724 1.225768 0.856058
v -0.209737 1.225333 0.895316
v -0.208711 1.219418 0.895304
v -0.208698 1.219085 0.856046
v -0.204407 1.082942 -0.127294
v -0.204407 1.121983 -0.132527
v -0.204407 1.161841 -0.136784
v -0.210173 1.234712 0.72672
v -0.210304 1.234131 0.727995
v -0.210304 1.233929 0.734934
v -0.210304 1.234206 0.725444
v -0.210304 1.234462 0.716669
v -0.208165 1.231312 0.737933
v -0.210304 1.232275 0.735814
v -0.210304 1.232101 0.737933
v -0.201075 1.215595 0.234685
v -0.205795 1.214891 0.194735
v -0.205795 1.21478 0.197531
v -0.205795 1.214455 0.191366
v -0.205795 1.213898 0.187369
v -0.208297 1.213123 0.1835
v -0.208297 1.211493 0.176981
v -0.208297 1.213137 0.177079
v -0.204024 1.197837 0.142742
v -0.204682 1.202167 0.153495
v -0.205577 1.207653 0.166785
v -0.204626 1.188785 0.11358
v -0.204626 1.189477 0.123043
v -0.204626 1.193508 0.131989
v -0.204407 1.17946 -0.138441
v -0.20893 1.20028 0.081202
v -0.204626 1.190351 0.104117
v -0.200737 1.219379 0.363793
v -0.210304 1.222509 0.741878
v -0.211037 1.222375 0.806213
v -0.208282 1.22558 0.741866
v -0.208794 1.227892 0.741866
v -0.210297 1.234071 0.715645
v -0.200473 1.236116 0.248856
v -0.209112 1.238764 0.553794
v -0.206911 1.229401 0.739786
v -0.206911 1.226701 0.741302
v -0.206911 1.224687 0.741853
v -0.209806 1.194981 0.808954
v -0.207783 1.228656 0.841082
v -0.209508 1.230308 0.841086
v -0.209715 1.230283 0.853231
v -0.207991 1.22863 0.853227
v -0.20509 1.211099 0.809179
v -0.20724 1.218425 0.809224
v -0.20698 1.199864 0.809088
v -0.20499 1.206218 0.809133
v -0.208965 1.231048 0.809287
v -0.20724 1.228722 0.809282
v -0.20724 1.222369 0.809269
v -0.209952 1.195585 0.821793
v -0.207199 1.200468 0.821927
v -0.207459 1.222342 0.822058
v -0.205209 1.206665 0.82196
v -0.209183 1.231021 0.822076
v -0.207459 1.228695 0.822072
v -0.210307 1.197057 0.853069
v -0.205841 1.212091 0.853208
v -0.207991 1.218875 0.853211
v -0.207731 1.20194 0.853203
v -0.205742 1.207753 0.853205
v -0.21146 1.208812 0.856046
v -0.207991 1.222277 0.853213
v -0.210247 1.196999 0.824887
v -0.207511 1.200614 0.825021
v -0.205262 1.206772 0.825051
v -0.209235 1.228637 0.825158
v -0.208334 1.226985 0.825154
v -0.208334 1.222336 0.82514
v -0.21039 1.197592 0.837487
v -0.207726 1.201207 0.837621
v -0.208548 1.222309 0.837692
v -0.20945 1.228611 0.83771
v -0.208548 1.226959 0.837706
v -0.205476 1.20721 0.837639
v -0.210169 1.196483 0.840877
v -0.207523 1.201366 0.84101
v -0.205534 1.207329 0.841025
v -0.207783 1.222302 0.841068
v -0.210954 1.231513 0.809287
v -0.210937 1.230847 0.806231
v -0.211027 1.231487 0.822076
v -0.211573 1.230748 0.853231
v -0.211045 1.229103 0.825158
v -0.211396 1.229076 0.83771
v -0.211434 1.230773 0.841086
v -0.208548 1.223665 0.837696
v -0.207783 1.22442 0.841073
v -0.208548 1.225782 0.837701
v -0.207783 1.226538 0.841077
v -0.211474 1.208728 0.895304
v -0.208334 1.223691 0.825145
v -0.208334 1.225809 0.82515
v -0.207459 1.22446 0.822063
v -0.207459 1.226578 0.822067
v -0.207991 1.224395 0.853218
v -0.207991 1.226513 0.853223
v -0.20724 1.224486 0.809274
v -0.20724 1.226604 0.809278
v -0.210884 1.227906 0.806202
v -0.210837 1.228843 0.741866
v -0.205635 1.222631 0.553269
v -0.205635 1.225783 0.553251
v -0.210621 1.235122 0.43936
v -0.209785 1.235324 0.414015
v -0.200171 1.24187 0.254531
v -0.209307 1.240652 0.400325
v -0.202397 1.229655 0.405794
v -0.2096 1.236847 0.407345
v -0.209536 1.240553 0.405806
v -0.209743 1.236668 0.412753
v -0.205568 1.235386 0.412772
v -0.205132 1.23621 0.407474
v -0.206398 1.234198 0.414356
v -0.205066 1.237896 0.405897
v -0.20669 1.234137 0.439455
v -0.211084 1.23487 0.454539
v -0.206612 1.23395 0.454624
v -0.20305 1.232229 0.407732
v -0.20298 1.233727 0.406106
v -0.205382 1.234304 0.455476
v -0.205465 1.230532 0.439669
v -0.204637 1.230533 0.414286
v -0.203191 1.232035 0.413049
v -0.204834 1.238461 0.400421
v -0.202469 1.228716 0.40746
v -0.204056 1.227213 0.413961
v -0.202609 1.228151 0.412734
v -0.205928 1.230343 0.454828
v -0.204826 1.229524 0.455545
v -0.204826 1.225484 0.455539
v -0.202745 1.234292 0.400634
v -0.201216 1.234547 0.365289
v -0.205507 1.223079 0.455554
v -0.205444 1.230092 0.552571
v -0.205445 1.234454 0.55255
v -0.208338 1.222922 0.806287
v -0.208291 1.223859 0.741951
v -0.205371 1.163192 0.220792
v -0.208186 1.16014 0.198604
v -0.207497 1.158618 0.217944
v -0.205424 1.164563 0.215182
v -0.20755 1.158499 0.214279
v -0.208884 1.153993 0.217645
v -0.208937 1.153873 0.21398
v -0.210449 1.147928 0.215585
v -0.211167 1.140013 0.221666
v -0.209927 1.149811 0.218688
v -0.210477 1.141965 0.223405
v -0.208192 1.152185 0.198218
v -0.208571 1.151743 0.194105
v -0.208564 1.159699 0.193769
v -0.208197 1.149169 0.198621
v -0.208576 1.146161 0.19578
v -0.208581 1.140823 0.200389
v -0.208206 1.141735 0.206085
v -0.208202 1.144515 0.202254
v -0.208585 1.138547 0.20508
v -0.208586 1.136953 0.210917
v -0.208587 1.13619 0.216002
v -0.208207 1.139762 0.211571
v -0.208209 1.138695 0.224891
v -0.208208 1.138754 0.215752
v -0.208587 1.136385 0.225141
v -0.208588 1.138083 0.234656
v -0.208589 1.140648 0.241739
v -0.20821 1.139804 0.233097
v -0.208211 1.14556 0.244266
v -0.208211 1.142371 0.24018
v -0.20859 1.144842 0.246476
v -0.208591 1.150462 0.249492
v -0.208212 1.150834 0.247282
v -0.208213 1.157636 0.248533
v -0.208592 1.158236 0.250693
v -0.208213 1.161644 0.246505
v -0.208592 1.161758 0.250612
v -0.205088 1.16617 0.251255
v -0.20471 1.166056 0.243676
v -0.205444 1.222614 0.552615
v -0.205444 1.225766 0.552596
v -0.205592 1.221942 0.550752
v -0.205591 1.221949 0.552619
v -0.206509 1.236798 0.550607
v -0.205445 1.234448 0.550683
v -0.205444 1.222607 0.550747
v -0.205444 1.225759 0.550729
v -0.205444 1.230085 0.550704
v -0.2058 1.221938 0.550061
v -0.206652 1.236721 0.54988
v -0.205636 1.234407 0.549987
v -0.205636 1.222603 0.550056
v -0.205636 1.225755 0.550038
v -0.205636 1.230081 0.550013
v -0.205636 1.234407 0.548518
v -0.205636 1.222603 0.548587
v -0.205636 1.225755 0.548568
v -0.205636 1.230081 0.548543
v -0.2058 1.221938 0.548591
v -0.205636 1.222603 0.535795
v -0.205636 1.225755 0.535777
v -0.205636 1.230081 0.535752
v -0.2058 1.221938 0.5358
v -0.209113 1.245757 0.546496
v -0.209113 1.246334 0.54416
v -0.211476 1.246354 0.544153
v -0.205636 1.234407 0.535726
v -0.2058 1.221938 0.532583
v -0.205636 1.222603 0.532579
v -0.209113 1.245668 0.536588
v -0.209113 1.244503 0.535665
v -0.205636 1.230081 0.532535
v -0.205636 1.234407 0.532509
v -0.205636 1.225755 0.532561
v -0.205773 1.222414 0.455539
v -0.211792 1.23828 0.529038
v -0.211777 1.238261 0.532484
v -0.209111 1.244501 0.536307
v -0.209111 1.244499 0.546934
v -0.209113 1.244606 0.547506
v -0.209111 1.24466 0.540048
v -0.209113 1.246334 0.540056
v -0.209111 1.244644 0.544222
v -0.211783 1.242583 0.532194
v -0.21229 1.247244 0.463966
v -0.21231 1.243736 0.463936
v -0.211808 1.242648 0.528844
v -0.212182 1.243602 0.47952
v -0.206194 1.247244 0.463966
v -0.212313 1.242468 0.463785
v -0.212161 1.247111 0.47955
v -0.206066 1.247111 0.47955
v -0.210974 1.200809 0.941804
v -0.210985 1.200738 0.96342
v -0.209881 1.217148 0.97426
v -0.209886 1.217193 0.988388
v -0.211831 1.21593 0.988394
v -0.211781 1.215875 0.974265
v -0.212128 1.226668 0.94913
v -0.211606 1.226152 0.947572
v -0.208393 1.221539 0.974264
v -0.208354 1.221479 0.988392
v -0.208602 1.219363 0.988388
v -0.208619 1.219371 0.97426
v -0.208741 1.22325 0.974268
v -0.208747 1.223148 0.988396
v -0.209767 1.224591 0.974272
v -0.209773 1.224458 0.9884
v -0.210662 1.225451 0.97428
v -0.210668 1.22526 0.988411
v -0.212343 1.218446 0.988388
v -0.211621 1.220528 0.988388
v -0.211621 1.224458 0.9884
v -0.211621 1.225603 0.988404
v -0.213238 1.216662 0.988388
v -0.211621 1.221838 0.988392
v -0.211621 1.223148 0.988396
v -0.211616 1.225793 0.974275
v -0.211689 1.215771 0.94756
v -0.211917 1.215128 0.949118
v -0.210725 1.226289 0.949134
v -0.210652 1.225813 0.947576
v -0.209409 1.225215 0.949127
v -0.209757 1.224842 0.947569
v -0.207901 1.223656 0.949122
v -0.208731 1.22344 0.947564
v -0.20865 1.219387 0.947556
v -0.207779 1.219151 0.949115
v -0.209237 1.216568 0.949115
v -0.209871 1.217064 0.947556
v -0.207503 1.221669 0.949119
v -0.208465 1.221653 0.947561
v -0.21222 1.230052 0.949178
v -0.212233 1.229701 0.972661
v -0.212141 1.226316 0.972613
v -0.212037 1.215231 0.972602
v -0.210738 1.225935 0.972618
v -0.209422 1.224968 0.97261
v -0.207914 1.223469 0.972606
v -0.207738 1.219135 0.972598
v -0.209251 1.216651 0.972598
v -0.207409 1.221558 0.972602
v -0.212332 1.232219 0.972696
v -0.212319 1.232571 0.954573
v -0.212221 1.234587 0.972729
v -0.212255 1.239935 0.971309
v -0.212207 1.234938 0.960339
v -0.212242 1.240288 0.961286
v -0.211934 1.200636 0.940756
v -0.225453 1.236565 0.279006
v -0.225002 1.232047 0.247141
v -0.225604 1.232466 0.248856
v -0.219917 1.232295 0.243375
v -0.225905 1.236191 0.254531
v -0.223154 1.227695 0.245573
v -0.222963 1.232146 0.245574
v -0.201075 1.228488 0.235589
v -0.201075 1.232567 0.235589
v -0.200473 1.232745 0.248856
v -0.200171 1.232829 0.254531
v -0.200623 1.232569 0.279006
v -0.200473 1.228339 0.248856
v -0.200623 1.227455 0.279006
v -0.200171 1.228297 0.254531
v -0.213963 1.221838 0.988392
v -0.213964 1.223148 0.988396
v -0.213963 1.224458 0.9884
v -0.213963 1.220528 0.988388
v -0.213964 1.216662 0.988388
v -0.213964 1.218446 0.988388
v -0.221316 1.224059 0.388993
v -0.221316 1.224059 0.243131
v -0.219999 1.220881 0.242863
v -0.219999 1.220881 0.237239
v -0.221316 1.224059 0.237373
v -0.221316 1.224059 0.235796
v -0.21913 1.218784 0.235796
v -0.21913 1.218784 0.388993
v -0.21913 1.229336 0.388993
v -0.21913 1.229336 0.235796
v -0.219804 1.227711 0.237373
v -0.219804 1.227711 0.243131
v -0.220214 1.224059 0.188373
v -0.218351 1.228557 0.188373
v -0.213854 1.230419 0.188373
v -0.209358 1.228557 0.188373
v -0.207495 1.224059 0.188373
v -0.209358 1.219563 0.188373
v -0.213854 1.217701 0.188373
v -0.218351 1.219563 0.188373
v -0.213854 1.216599 0.388993
v -0.208579 1.218784 0.388993
v -0.206393 1.224059 0.388993
v -0.208579 1.229336 0.388993
v -0.213854 1.231521 0.388993
v -0.228914 1.227711 0.237373
v -0.228914 1.227711 0.240246
v -0.228914 1.227711 0.243131
v -0.22911 1.220881 0.242863
v -0.22911 1.220881 0.240278
v -0.22911 1.220881 0.237239
v -0.213854 1.216599 0.235796
v -0.213854 1.231521 0.235796
v -0.208579 1.229336 0.235796
v -0.206393 1.224059 0.235796
v -0.208579 1.218784 0.235796
v -0.213854 1.216599 0.23313
v -0.208579 1.218784 0.23313
v -0.213854 1.21396 0.23313
v -0.206713 1.216919 0.23313
v -0.21913 1.218784 0.23313
v -0.21913 1.229336 0.23313
v -0.221316 1.224059 0.23313
v -0.206393 1.224059 0.23313
v -0.208579 1.229336 0.23313
v -0.213854 1.231521 0.23313
v -0.203756 1.224059 0.23313
v -0.206713 1.231201 0.23313
v -0.213854 1.234159 0.23313
v -0.220996 1.231201 0.23313
v -0.223953 1.224059 0.23313
v -0.220996 1.216919 0.23313
v -0.206713 1.231201 0.219802
v -0.213854 1.234159 0.219802
v -0.220996 1.231201 0.219802
v -0.223953 1.224059 0.219802
v -0.220996 1.216919 0.219802
v -0.213854 1.21396 0.219802
v -0.206713 1.216919 0.219802
v -0.203756 1.224059 0.219802
v -0.206067 1.216272 0.219802
v -0.202841 1.224059 0.219802
v -0.206067 1.231847 0.219802
v -0.213854 1.235073 0.219802
v -0.221642 1.231847 0.219802
v -0.224868 1.224059 0.219802
v -0.221642 1.216272 0.219802
v -0.213854 1.213047 0.219802
v -0.202841 1.224059 0.206112
v -0.206067 1.231847 0.206112
v -0.213854 1.235073 0.206112
v -0.221642 1.231847 0.206112
v -0.224868 1.224059 0.206112
v -0.221642 1.216272 0.206112
v -0.206067 1.216272 0.206112
v -0.213854 1.213047 0.206112
v -0.219991 1.217922 0.206112
v -0.213854 1.21538 0.206112
v -0.207717 1.217922 0.206112
v -0.205175 1.224059 0.206112
v -0.207717 1.230196 0.206112
v -0.213854 1.232739 0.206112
v -0.219991 1.230196 0.206112
v -0.222533 1.224059 0.206112
v -0.207717 1.217922 0.202834
v -0.205175 1.224059 0.202834
v -0.207717 1.230196 0.202834
v -0.213854 1.232739 0.202834
v -0.219991 1.230196 0.202834
v -0.222533 1.224059 0.202834
v -0.219991 1.217922 0.202834
v -0.213854 1.21538 0.202834
v -0.220214 1.224059 0.202834
v -0.218351 1.219563 0.202834
v -0.209358 1.219563 0.202834
v -0.207495 1.224059 0.202834
v -0.209358 1.228557 0.202834
v -0.213854 1.230419 0.202834
v -0.218351 1.228557 0.202834
v -0.213854 1.217701 0.202834
v -0.228922 1.224059 0.237373
v -0.228922 1.224059 0.243131
v -0.228932 1.226798 0.240354
v -0.228932 1.225962 0.242013
v -0.229077 1.222519 0.238775
v -0.228938 1.224101 0.238108
v -0.228938 1.224101 0.242362
v -0.229077 1.222589 0.241675
v -0.228932 1.226032 0.238596
v -0.229077 1.222101 0.24023
v -0.231891 1.224128 0.238108
v -0.232544 1.225946 0.238596
v -0.23134 1.222201 0.24023
v -0.231482 1.222594 0.238775
v -0.232804 1.226666 0.240354
v -0.23252 1.22588 0.242013
v -0.231891 1.224128 0.242362
v -0.231506 1.22266 0.241675
v -0.233735 1.221462 0.241416
v -0.233495 1.221144 0.240237
v -0.235297 1.223729 0.24169
v -0.234386 1.222515 0.241975
v -0.234386 1.222515 0.238505
v -0.235331 1.223774 0.238903
v -0.2337 1.221416 0.23905
v -0.235707 1.224274 0.240337
v -0.240628 1.197213 0.240757
v -0.242028 1.197751 0.240161
v -0.24166 1.198411 0.244077
v -0.240437 1.197686 0.243429
v -0.240134 1.197301 0.242086
v -0.243322 1.198975 0.243805
v -0.243679 1.198468 0.240661
v -0.244199 1.198993 0.242301
v -0.243952 1.193335 0.249607
v -0.243145 1.195762 0.2488
v -0.247454 1.196962 0.246895
v -0.248616 1.194633 0.247545
v -0.242485 1.197708 0.247075
v -0.242071 1.198875 0.244695
v -0.243856 1.199372 0.243907
v -0.245783 1.198626 0.245617
v -0.246022 1.186881 0.246081
v -0.245509 1.188528 0.248135
v -0.248806 1.189446 0.246677
v -0.247807 1.187378 0.245292
v -0.244782 1.190794 0.249373
v -0.249091 1.191993 0.247469
v -0.241967 1.199086 0.242023
v -0.246243 1.186104 0.243523
v -0.250236 1.18952 0.243243
v -0.24858 1.187418 0.243433
v -0.250637 1.194738 0.242688
v -0.250958 1.19209 0.242982
v -0.247212 1.1987 0.242182
v -0.249322 1.197059 0.242407
v -0.244629 1.199412 0.242048
v -0.243939 1.198972 0.240208
v -0.24789 1.186978 0.241594
v -0.249291 1.191028 0.23854
v -0.248959 1.188707 0.239844
v -0.247654 1.195996 0.237966
v -0.248833 1.193588 0.237881
v -0.245936 1.197887 0.238783
v -0.245065 1.189428 0.236747
v -0.245725 1.187483 0.238472
v -0.243428 1.194397 0.236173
v -0.244258 1.191857 0.23594
v -0.242188 1.198309 0.239466
v -0.242702 1.196663 0.237411
v -0.246139 1.186316 0.240851
v -0.242427 1.186565 0.239929
v -0.244354 1.185819 0.24164
v -0.239594 1.190558 0.238001
v -0.240756 1.18823 0.238651
v -0.239403 1.195745 0.238868
v -0.239119 1.193197 0.238078
v -0.240404 1.197813 0.240254
v -0.237572 1.190454 0.242858
v -0.238888 1.188133 0.243139
v -0.237974 1.195671 0.242303
v -0.237251 1.1931 0.242565
v -0.239629 1.197773 0.242113
v -0.24358 1.185779 0.243499
v -0.240998 1.186491 0.243364
v -0.244271 1.186219 0.245338
v -0.240555 1.189195 0.24758
v -0.242274 1.187304 0.246763
v -0.238919 1.194163 0.247006
v -0.239377 1.191603 0.247666
v -0.24032 1.198213 0.243953
v -0.23925 1.196484 0.245702

f 2 3 4 5 1 
f 7 8 9 10 6 
f 11 12 13 14 15 16 17 7 6 
f 19 20 21 22 18 
f 23 24 25 14 13 
f 27 28 29 30 26 
f 30 31 32 33 26 
f 35 36 37 38 39 40 41 42 43 34 
f 44 45 46 24 23 
f 48 49 50 51 47 
f 52 53 54 55 56 57 28 27 
f 57 58 59 35 28 
f 60 52 27 61 47 20 
f 63 64 65 66 62 
f 67 68 69 70 71 72 73 65 
f 74 75 76 77 67 
f 79 80 81 82 83 78 
f 84 85 86 80 79 
f 87 88 89 84 78 
f 91 92 93 94 90 
f 96 97 98 99 95 
f 100 101 102 103 104 105 40 39 38 37 
f 107 108 109 110 111 112 113 114 115 106 
f 116 109 108 107 106 117 104 103 102 101 
f 118 119 120 32 31 
f 120 49 48 33 32 
f 122 123 124 125 121 
f 22 126 127 128 18 
f 82 129 130 131 132 133 134 135 74 64 63 
f 137 138 139 140 141 136 
f 143 144 145 146 147 142 
f 148 149 150 147 146 
f 152 153 154 155 156 151 
f 46 157 158 159 25 24 
f 161 162 163 164 160 
f 166 167 168 169 170 165 
f 172 173 174 175 176 177 171 
f 178 179 180 172 167 
f 181 182 183 170 163 
f 184 185 166 186 187 188 189 190 191 192 165 
f 192 193 194 195 196 197 186 166 165 
f 199 200 201 202 203 204 205 206 207 208 209 198 
f 211 212 213 214 215 216 217 218 219 210 
f 221 222 223 224 220 
f 224 225 226 227 220 
f 229 230 231 232 228 
f 234 235 236 237 233 
f 238 239 240 241 242 243 244 234 233 
f 246 247 248 249 245 
f 250 251 252 242 241 
f 254 255 256 257 258 259 260 261 262 253 
f 263 264 265 252 251 
f 267 268 269 270 271 272 273 266 
f 274 275 266 273 258 
f 276 272 271 277 249 
f 279 280 281 282 278 
f 283 284 285 286 287 288 289 281 
f 302 303 304 305 289 
f 307 308 309 310 311 306 
f 312 313 314 307 306 
f 314 315 316 317 308 
f 319 320 321 322 318 
f 324 325 326 327 323 
f 328 329 330 331 332 333 256 255 254 253 
f 335 336 337 338 339 340 341 342 343 334 
f 344 340 339 338 337 345 332 331 330 329 
f 346 347 348 349 284 
f 282 305 350 351 352 353 354 355 356 310 278 
f 357 358 359 360 361 139 138 
f 361 295 301 362 139 
f 363 364 365 144 143 
f 366 367 368 369 364 363 
f 371 372 373 374 375 370 
f 376 377 378 263 251 250 
f 379 380 381 161 160 
f 383 384 385 386 387 382 
f 389 390 391 392 393 394 388 
f 390 395 396 397 382 
f 385 398 399 400 380 
f 401 402 384 403 404 405 406 407 408 409 383 
f 409 410 411 412 413 414 403 384 383 
f 416 417 418 419 420 421 422 423 424 425 426 415 
f 428 429 430 431 432 433 434 435 436 427 
f 437 438 439 440 222 
f 441 442 443 439 438 
f 444 445 446 447 348 347 297 296 
f 369 448 449 450 451 452 360 359 
f 137 136 453 128 127 
f 458 459 454 455 456 457 265 264 
f 276 460 455 454 459 458 273 272 
f 461 462 252 265 457 235 
f 1568 1569 1570 1571 1572 1573 1574 1567 
f 1575 1576 1572 1571 1577 1578 1568 1567 
f 1580 1581 1582 1583 1584 1585 1586 1579 
f 1574 1587 1588 1589 1590 1591 1575 1567 
f 1592 1593 1594 1578 1577 
f 1595 1596 1597 1570 1569 
f 290 1554 294 121 
f 295 296 1557 301 
f 463 464 465 466 
f 111 467 468 469 
f 470 114 471 472 
f 473 115 114 470 
f 110 474 467 111 
f 109 475 474 110 
f 476 106 115 473 
f 157 46 42 477 
f 45 29 34 43 
f 478 41 40 479 
f 36 480 481 37 
f 482 105 104 483 
f 100 484 485 101 
f 486 78 83 487 
f 488 489 490 491 
f 492 493 494 495 
f 5 4 21 51 
f 495 494 9 8 
f 51 21 20 47 
f 496 20 19 497 
f 498 49 120 119 
f 499 500 501 502 
f 503 504 505 506 
f 507 508 509 510 
f 80 86 81 
f 511 512 493 492 
f 513 73 2 1 
f 483 104 117 514 
f 101 485 515 116 
f 514 117 106 476 
f 116 515 475 109 
f 35 59 480 36 
f 477 42 41 478 
f 37 481 484 100 
f 479 40 105 482 
f 44 30 29 45 
f 516 507 510 517 
f 502 501 518 519 
f 506 505 520 521 
f 522 523 524 525 
f 526 527 489 488 
f 528 87 78 486 
f 529 530 87 528 
f 531 532 527 526 
f 533 534 535 536 
f 537 538 539 540 
f 541 542 543 544 
f 545 516 517 546 
f 534 545 546 535 
f 540 539 532 531 
f 544 543 530 529 
f 547 548 549 550 
f 551 552 548 547 
f 550 549 553 554 
f 554 553 555 556 
f 557 558 559 560 
f 561 562 563 564 
f 565 566 558 557 
f 567 50 49 498 
f 568 569 50 567 
f 564 563 569 568 
f 556 555 570 571 
f 572 573 574 575 
f 113 112 576 577 
f 34 29 28 35 
f 112 111 469 576 
f 114 113 577 471 
f 578 579 580 581 
f 489 556 571 490 
f 493 564 568 494 
f 494 568 567 9 
f 9 567 498 10 
f 500 565 557 501 
f 512 561 564 493 
f 501 557 560 518 
f 527 554 556 489 
f 532 550 554 527 
f 538 551 547 539 
f 539 547 550 532 
f 10 498 119 582 
f 46 45 43 42 
f 548 544 529 549 
f 552 541 544 548 
f 549 529 528 553 
f 553 528 486 555 
f 558 506 521 559 
f 562 513 1 563 
f 566 503 506 558 
f 569 5 51 50 
f 563 1 5 569 
f 555 486 487 570 
f 583 584 585 586 
f 87 530 587 88 
f 88 587 588 589 
f 589 588 545 534 
f 530 543 590 587 
f 587 590 591 588 
f 588 591 516 545 
f 78 84 79 
f 89 88 589 592 
f 592 589 534 533 
f 593 594 595 596 
f 596 595 523 522 
f 543 542 597 590 
f 590 597 598 591 
f 591 598 507 516 
f 596 522 599 600 
f 82 81 601 129 
f 542 520 602 597 
f 597 602 603 598 
f 598 603 508 507 
f 604 66 513 562 
f 605 606 561 512 
f 606 604 562 561 
f 66 65 73 513 
f 607 605 512 511 
f 608 609 605 607 
f 610 611 604 606 
f 609 610 606 605 
f 611 62 66 604 
f 612 613 62 611 
f 614 615 610 609 
f 615 612 611 610 
f 616 614 609 608 
f 617 616 608 618 
f 618 608 607 619 
f 619 607 511 620 
f 621 622 623 624 
f 522 525 621 599 
f 625 463 466 626 
f 464 627 628 465 
f 471 577 629 472 
f 472 629 630 631 
f 576 469 632 633 
f 633 632 634 635 
f 577 576 633 629 
f 629 633 635 630 
f 636 540 531 637 
f 517 638 639 546 
f 638 640 641 639 
f 642 537 540 636 
f 510 643 638 517 
f 643 644 640 638 
f 546 639 645 535 
f 639 641 646 645 
f 637 531 526 647 
f 647 526 488 648 
f 535 645 649 536 
f 645 646 650 649 
f 651 502 519 652 
f 653 654 655 509 
f 654 656 657 655 
f 658 659 660 
f 661 659 658 
f 53 662 663 54 
f 662 664 665 663 
f 54 663 666 55 
f 663 665 667 666 
f 55 666 668 56 
f 666 667 669 668 
f 56 668 670 57 
f 668 669 671 670 
f 58 672 673 59 
f 672 674 675 673 
f 676 14 25 677 
f 52 678 662 53 
f 678 679 664 662 
f 680 479 482 681 
f 481 682 683 484 
f 682 684 685 683 
f 686 477 478 687 
f 59 673 688 480 
f 673 675 689 688 
f 690 514 476 691 
f 515 692 693 475 
f 692 694 695 693 
f 696 483 514 690 
f 485 697 692 515 
f 697 698 694 692 
f 469 468 699 632 
f 632 699 700 634 
f 467 701 699 468 
f 701 702 700 699 
f 474 703 701 467 
f 703 704 702 701 
f 475 693 703 474 
f 693 695 704 703 
f 57 670 672 58 
f 670 671 674 672 
f 480 688 682 481 
f 688 689 684 682 
f 484 683 697 485 
f 683 685 698 697 
f 2 146 145 3 
f 292 660 705 293 
f 4 706 707 21 
f 20 496 658 60 
f 504 708 709 505 
f 151 710 711 152 
f 536 649 712 524 
f 649 650 713 712 
f 18 128 497 19 
f 661 496 714 715 
f 21 707 126 22 
f 73 72 146 2 
f 620 511 492 716 
f 717 499 502 651 
f 718 7 17 719 
f 720 8 7 718 
f 721 495 8 720 
f 716 492 495 721 
f 648 488 491 722 
f 681 482 483 696 
f 687 478 479 680 
f 723 157 477 686 
f 691 476 473 724 
f 724 473 470 725 
f 725 470 472 631 
f 86 85 594 593 
f 726 727 728 622 
f 595 594 89 592 
f 523 595 592 533 
f 524 523 533 536 
f 594 85 84 89 
f 524 712 726 525 
f 712 713 727 726 
f 508 603 729 730 
f 509 508 730 653 
f 509 655 643 510 
f 655 657 644 643 
f 518 560 551 538 
f 519 518 538 537 
f 559 521 541 552 
f 602 520 505 731 
f 521 520 542 541 
f 560 559 552 551 
f 603 602 731 729 
f 490 571 615 614 
f 570 487 613 612 
f 487 83 82 613 
f 571 570 612 615 
f 491 490 614 616 
f 652 519 537 642 
f 722 491 616 617 
f 732 733 499 717 
f 734 735 736 737 
f 738 739 503 566 
f 740 741 565 500 
f 741 738 566 565 
f 155 742 743 156 
f 739 744 504 503 
f 733 740 500 499 
f 745 746 740 733 
f 92 747 744 739 
f 748 93 738 741 
f 746 748 741 740 
f 93 92 739 738 
f 742 749 750 743 
f 751 745 733 732 
f 752 579 753 754 
f 735 625 573 736 
f 584 583 755 756 
f 578 757 758 759 
f 757 584 756 758 
f 583 627 760 755 
f 579 578 759 753 
f 761 762 745 751 
f 763 764 748 746 
f 764 94 93 748 
f 749 765 766 750 
f 91 767 747 92 
f 762 763 746 745 
f 768 769 763 762 
f 96 770 767 91 
f 765 771 772 766 
f 773 98 94 764 
f 769 773 764 763 
f 98 97 90 94 
f 573 625 626 574 
f 774 768 762 761 
f 775 776 768 774 
f 777 778 773 769 
f 778 99 98 773 
f 95 779 770 96 
f 776 777 769 768 
f 753 759 777 776 
f 755 760 779 95 
f 758 756 99 778 
f 759 758 778 777 
f 756 755 95 99 
f 771 734 737 772 
f 754 753 776 775 
f 780 781 782 783 
f 743 780 783 156 
f 750 784 780 743 
f 784 785 781 780 
f 572 786 787 788 
f 573 572 788 736 
f 789 790 785 784 
f 766 789 784 750 
f 772 791 789 766 
f 791 792 790 789 
f 793 794 792 791 
f 737 793 791 772 
f 736 788 793 737 
f 788 787 794 793 
f 770 779 795 796 
f 796 795 797 798 
f 798 797 734 771 
f 757 578 581 799 
f 767 770 796 800 
f 800 796 798 801 
f 801 798 771 765 
f 747 767 800 802 
f 802 800 801 803 
f 803 801 765 749 
f 760 627 464 804 
f 804 464 463 805 
f 805 463 625 735 
f 744 747 802 806 
f 806 802 803 807 
f 807 803 749 742 
f 504 744 806 153 
f 153 806 807 154 
f 154 807 742 155 
f 779 760 804 795 
f 795 804 805 797 
f 797 805 735 734 
f 90 97 96 91 
f 808 809 710 151 
f 26 33 61 27 
f 118 31 30 44 
f 810 118 44 23 
f 582 119 118 810 
f 810 12 11 582 
f 61 33 48 47 
f 11 6 10 582 
f 13 12 810 23 
f 811 812 809 808 
f 782 811 808 783 
f 86 593 813 814 
f 815 816 817 818 
f 819 362 820 821 
f 145 126 707 706 
f 822 823 824 825 
f 125 124 821 820 
f 146 72 826 148 
f 613 82 63 62 
f 497 128 453 827 
f 496 497 827 714 
f 72 71 828 826 
f 126 145 144 829 
f 830 831 832 833 
f 830 834 835 836 
f 836 837 831 830 
f 836 835 838 818 
f 833 832 823 822 
f 833 839 834 830 
f 818 838 840 815 
f 818 817 837 836 
f 841 842 816 815 
f 841 843 177 176 
f 176 844 842 841 
f 834 839 845 846 
f 177 843 847 
f 840 838 848 849 
f 840 843 841 815 
f 835 834 846 850 
f 851 839 833 822 
f 150 851 822 825 
f 838 835 850 848 
f 846 845 828 852 
f 848 850 853 854 
f 850 846 852 853 
f 849 855 843 840 
f 856 855 76 857 
f 858 845 839 851 
f 849 848 854 77 
f 149 858 851 150 
f 853 852 70 69 
f 77 854 68 67 
f 77 76 855 849 
f 852 828 71 70 
f 826 828 845 858 
f 854 853 69 68 
f 857 76 75 859 
f 148 826 858 149 
f 140 139 362 819 
f 138 137 126 829 
f 824 143 142 825 
f 3 145 706 4 
f 825 142 147 150 
f 600 599 860 861 
f 152 711 862 863 
f 783 808 151 156 
f 656 654 809 812 
f 653 710 809 654 
f 709 708 863 862 
f 504 863 708 
f 153 152 863 504 
f 653 730 729 710 
f 710 729 711 
f 731 862 711 729 
f 709 862 731 505 
f 864 15 865 866 
f 867 158 157 723 
f 868 159 869 870 
f 677 25 159 868 
f 866 865 871 872 
f 14 676 873 874 
f 875 16 15 864 
f 15 14 874 865 
f 874 873 876 877 
f 865 874 877 871 
f 872 871 878 879 
f 877 876 880 881 
f 871 877 881 878 
f 882 883 884 885 
f 879 878 886 887 
f 881 880 883 882 
f 878 881 882 886 
f 888 889 885 884 
f 886 882 885 889 
f 887 886 889 888 
f 869 890 891 892 
f 158 867 893 890 
f 159 158 890 869 
f 894 892 895 896 
f 870 869 892 894 
f 890 893 897 891 
f 898 899 900 901 
f 891 897 899 898 
f 892 891 898 895 
f 902 903 904 905 
f 895 898 901 903 
f 896 895 903 902 
f 901 900 906 907 
f 903 901 907 904 
f 908 909 910 911 
f 907 906 909 908 
f 904 907 908 912 
f 905 904 912 913 
f 914 915 916 917 
f 912 908 911 915 
f 913 912 915 914 
f 918 919 920 921 
f 911 910 919 918 
f 915 911 918 916 
f 921 920 922 923 
f 916 918 921 924 
f 917 916 924 925 
f 926 927 928 929 
f 924 921 923 927 
f 925 924 927 926 
f 930 931 932 933 
f 923 922 931 930 
f 927 923 930 928 
f 934 933 935 936 
f 928 930 933 934 
f 929 928 934 937 
f 938 936 939 940 
f 937 934 936 938 
f 933 932 941 935 
f 942 943 944 945 
f 935 941 943 942 
f 936 935 942 939 
f 946 947 16 875 
f 939 942 945 947 
f 940 939 947 946 
f 945 944 719 17 
f 947 945 17 16 
f 599 621 624 860 
f 814 813 948 949 
f 622 728 950 623 
f 593 596 600 813 
f 525 726 622 621 
f 130 951 952 131 
f 624 623 164 953 
f 860 624 953 954 
f 949 948 955 956 
f 623 950 160 164 
f 948 861 957 955 
f 813 600 861 948 
f 129 601 951 130 
f 131 952 958 132 
f 953 164 163 959 
f 954 953 959 960 
f 956 955 961 962 
f 955 957 963 961 
f 861 860 954 957 
f 957 954 960 963 
f 949 951 601 814 
f 956 952 951 949 
f 962 958 952 956 
f 81 86 814 601 
f 960 959 169 964 
f 962 961 965 966 
f 961 963 967 965 
f 132 958 968 133 
f 958 962 966 968 
f 959 163 170 169 
f 163 162 218 181 
f 963 960 964 967 
f 966 965 969 970 
f 965 967 971 969 
f 133 968 972 134 
f 968 966 970 972 
f 973 215 214 
f 973 214 974 
f 967 964 975 971 
f 964 169 168 975 
f 972 970 976 977 
f 978 212 211 979 
f 971 975 980 981 
f 975 168 171 980 
f 970 969 982 976 
f 969 971 981 982 
f 134 972 977 135 
f 168 167 172 171 
f 981 980 847 856 
f 980 171 177 847 
f 976 982 857 859 
f 982 981 856 857 
f 135 977 983 74 
f 977 976 859 983 
f 172 984 985 173 
f 189 188 206 205 
f 167 166 185 178 
f 179 178 986 979 
f 183 182 987 988 
f 182 217 216 987 
f 178 185 989 986 
f 979 986 978 
f 986 989 990 978 
f 988 987 973 
f 990 989 991 974 
f 989 185 184 991 
f 184 165 170 183 
f 974 991 988 973 
f 991 184 183 988 
f 979 211 210 179 
f 179 210 219 180 
f 990 213 212 978 
f 974 992 990 
f 992 213 990 
f 987 216 215 973 
f 192 191 203 202 
f 196 195 199 198 
f 193 192 202 201 
f 190 189 205 204 
f 197 196 198 209 
f 187 186 208 207 
f 194 193 201 200 
f 191 190 204 203 
f 186 197 209 208 
f 188 187 207 206 
f 195 194 200 199 
f 218 162 161 993 
f 181 218 217 182 
f 180 219 984 172 
f 219 218 993 994 
f 219 994 995 996 
f 997 998 999 1000 
f 984 996 1001 985 
f 985 1001 1002 223 
f 1001 1003 1004 1002 
f 998 226 1005 999 
f 998 1006 227 226 
f 223 1002 225 224 
f 173 985 223 174 
f 174 223 222 175 
f 996 984 219 
f 996 995 1003 1001 
f 175 222 844 176 
f 227 1006 221 220 
f 1007 1006 998 997 
f 1008 1009 1000 999 
f 1008 999 1005 1010 
f 226 225 1010 1005 
f 1002 1004 1009 1008 
f 225 1002 1008 1010 
f 847 843 855 856 
f 222 221 1006 1007 
f 64 74 67 65 
f 859 75 74 983 
f 584 757 799 585 
f 1011 1012 1013 1014 
f 627 583 586 628 
f 1015 1016 585 799 
f 1017 1018 1019 1020 
f 1021 1022 1023 1024 
f 1025 1026 1027 1028 
f 1029 1025 1028 1030 
f 1026 1017 1020 1027 
f 1031 1029 1030 1032 
f 1033 1031 1032 1034 
f 579 752 1035 580 
f 786 572 575 1036 
f 1037 1038 1027 1020 
f 1039 1040 1041 
f 581 580 1044 1045 
f 1032 1041 1040 1034 
f 1027 1038 1046 1028 
f 1028 1046 1047 1030 
f 1030 1047 1041 1032 
f 1011 1014 1048 1049 
f 1050 1033 1034 1040 
f 1018 1051 1042 1019 
f 1052 1050 1040 1039 
f 1019 1043 1037 1020 
f 581 1045 1015 799 
f 1053 1054 1055 1056 
f 1022 1057 1058 1023 
f 1057 1059 1060 1058 
f 1059 1061 1062 1060 
f 1063 1064 1065 1066 
f 1061 1067 1068 1062 
f 1067 1063 1066 1068 
f 1064 1053 1056 1065 
f 1023 1069 1070 1071 
f 1056 1055 1072 1073 
f 1023 1058 1074 1069 
f 1058 1060 1075 1074 
f 1060 1062 1076 1075 
f 1066 1065 1077 1078 
f 1062 1068 1079 1076 
f 1068 1066 1078 1079 
f 1065 1056 1073 1077 
f 586 585 1053 1064 
f 465 628 1063 1067 
f 466 465 1067 1061 
f 628 586 1064 1063 
f 626 466 1061 1059 
f 574 626 1059 1057 
f 575 574 1057 1022 
f 585 1016 1054 1053 
f 1036 575 1022 1021 
f 1080 1069 1050 1052 
f 1073 1072 1051 1018 
f 1069 1074 1033 1050 
f 1074 1075 1031 1033 
f 1075 1076 1029 1031 
f 1078 1077 1017 1026 
f 1076 1079 1025 1029 
f 1079 1078 1026 1025 
f 1077 1073 1018 1017 
f 1070 1081 1082 1083 
f 1069 1080 1081 1070 
f 1024 1023 1071 1084 
f 1084 1071 1085 1086 
f 1071 1070 1083 1085 
f 1087 1088 1089 1090 
f 1085 1083 1087 1091 
f 1083 1082 1088 1087 
f 1086 1085 1091 1092 
f 1093 1094 1090 1089 
f 1092 1091 1094 1093 
f 1091 1087 1090 1094 
f 580 1095 1096 1044 
f 580 1035 1097 1095 
f 1095 1011 1049 1096 
f 1095 1097 1012 1011 
f 1098 1099 1100 1101 
f 335 1102 1103 1104 
f 1105 1106 1107 342 
f 1108 1105 342 341 
f 336 335 1104 1109 
f 337 336 1109 1110 
f 1111 1108 341 340 
f 378 1112 261 263 
f 264 260 259 458 
f 1113 1114 253 262 
f 257 256 1115 1116 
f 1117 1118 329 328 
f 333 332 1119 1120 
f 1121 1122 309 308 
f 1123 1124 1125 1126 
f 1127 1128 1129 1130 
f 230 460 248 231 
f 1128 237 236 1129 
f 460 276 249 248 
f 1131 1132 245 249 
f 1133 1134 1135 1136 
f 1137 1138 1139 1140 
f 1141 1142 1143 1144 
f 306 311 312 
f 1145 1127 1130 1146 
f 1147 229 228 283 
f 1118 1148 344 329 
f 332 345 1149 1119 
f 1148 1111 340 344 
f 345 337 1110 1149 
f 258 257 1116 274 
f 1112 1113 262 261 
f 256 333 1120 1115 
f 1114 1117 328 253 
f 1150 1151 1142 1141 
f 1134 1152 1153 1135 
f 1138 1154 1155 1139 
f 1156 1157 1158 1159 
f 1160 1123 1126 1161 
f 1162 1121 308 317 
f 1163 1162 317 1164 
f 1165 1160 1161 1166 
f 1167 1168 1169 1170 
f 1171 1172 1173 1174 
f 1175 1176 1177 1178 
f 1179 1180 1151 1150 
f 1170 1169 1180 1179 
f 1172 1165 1166 1173 
f 1176 1163 1164 1177 
f 1181 1182 1183 1184 
f 1185 1181 1184 1186 
f 1182 1187 1188 1183 
f 1187 1189 1190 1188 
f 1191 1192 1193 1194 
f 1195 1196 1197 1198 
f 1199 1191 1194 1200 
f 1201 456 455 1202 
f 1196 1201 1202 1197 
f 1189 1203 1204 1190 
f 1205 1206 1207 1208 
f 343 1209 1210 334 
f 259 258 273 458 
f 334 1210 1102 335 
f 342 1107 1209 343 
f 1211 1212 1213 1214 
f 1126 1125 1203 1189 
f 1130 1129 1201 1196 
f 1129 236 456 1201 
f 236 235 457 456 
f 1136 1135 1191 1199 
f 1146 1130 1196 1195 
f 1135 1153 1192 1191 
f 1161 1126 1189 1187 
f 1166 1161 1187 1182 
f 1174 1173 1181 1185 
f 1173 1166 1182 1181 
f 263 261 260 264 
f 1184 1183 1163 1176 
f 1186 1184 1176 1175 
f 1183 1188 1162 1163 
f 1188 1190 1121 1162 
f 1194 1193 1154 1138 
f 1198 1197 229 1147 
f 1200 1194 1138 1137 
f 1202 455 460 230 
f 1197 1202 230 229 
f 1190 1204 1122 1121 
f 1215 1216 1217 1218 
f 317 316 1219 1164 
f 316 1220 1221 1219 
f 1220 1170 1179 1221 
f 1164 1219 1222 1177 
f 1219 1221 1223 1222 
f 1221 1179 1150 1223 
f 308 307 314 
f 315 1224 1220 316 
f 1224 1167 1170 1220 
f 1225 1226 1227 1228 
f 1226 1156 1159 1227 
f 1177 1222 1229 1178 
f 1222 1223 1230 1229 
f 1223 1150 1141 1230 
f 1226 1231 1232 1156 
f 310 356 1233 311 
f 1178 1229 1234 1155 
f 1229 1230 1235 1234 
f 1230 1141 1144 1235 
f 1236 1198 1147 280 
f 1237 1146 1195 1238 
f 1238 1195 1198 1236 
f 280 1147 283 281 
f 1239 1145 1146 1237 
f 1240 1239 1237 1241 
f 1242 1238 1236 1243 
f 1241 1237 1238 1242 
f 1243 1236 280 279 
f 1244 1243 279 1245 
f 1246 1241 1242 1247 
f 1247 1242 1243 1244 
f 1248 1240 1241 1246 
f 617 618 1240 1248 
f 618 619 1239 1240 
f 619 620 1145 1239 
f 1249 1250 1251 1252 
f 1156 1232 1249 1157 
f 1253 1254 1099 1098 
f 1101 1100 1255 1256 
f 1107 1106 1257 1209 
f 1106 631 630 1257 
f 1210 1258 1259 1102 
f 1258 635 634 1259 
f 1209 1257 1258 1210 
f 1257 630 635 1258 
f 636 637 1165 1172 
f 1151 1180 1260 1261 
f 1261 1260 641 640 
f 642 636 1172 1171 
f 1142 1151 1261 1262 
f 1262 1261 640 644 
f 1180 1169 1263 1260 
f 1260 1263 646 641 
f 637 647 1160 1165 
f 647 648 1123 1160 
f 1169 1168 1264 1263 
f 1263 1264 650 646 
f 651 652 1152 1134 
f 1265 1143 1266 1267 
f 1267 1266 657 656 
f 277 271 1268 291 
f 291 1268 679 292 
f 270 269 1269 1270 
f 1270 1269 665 664 
f 269 268 1271 1269 
f 1269 1271 667 665 
f 268 267 1272 1271 
f 1271 1272 669 667 
f 267 266 1273 1272 
f 1272 1273 671 669 
f 275 274 1274 1275 
f 1275 1274 675 674 
f 676 677 250 241 
f 271 270 1270 1268 
f 1268 1270 664 679 
f 680 681 1117 1114 
f 1115 1120 1276 1277 
f 1277 1276 685 684 
f 686 687 1113 1112 
f 274 1116 1278 1274 
f 1274 1278 689 675 
f 690 691 1111 1148 
f 1149 1110 1279 1280 
f 1280 1279 695 694 
f 696 690 1148 1118 
f 1119 1149 1280 1281 
f 1281 1280 694 698 
f 1102 1259 1282 1103 
f 1259 634 700 1282 
f 1104 1103 1282 1283 
f 1283 1282 700 702 
f 1109 1104 1283 1284 
f 1284 1283 702 704 
f 1110 1109 1284 1279 
f 1279 1284 704 695 
f 266 275 1275 1273 
f 1273 1275 674 671 
f 1116 1115 1277 1278 
f 1278 1277 684 689 
f 1120 1119 1281 1276 
f 1276 1281 698 685 
f 228 232 1285 346 
f 447 449 448 348 
f 249 277 291 1131 
f 1140 1139 1286 1287 
f 372 371 1288 1289 
f 1168 1158 1290 1264 
f 1264 1290 713 650 
f 246 245 1132 300 
f 291 1553 1558 1131 
f 232 231 248 247 
f 283 228 346 284 
f 620 716 1127 1145 
f 717 651 1134 1133 
f 718 719 238 233 
f 720 718 233 237 
f 721 720 237 1128 
f 716 721 1128 1127 
f 648 722 1124 1123 
f 681 696 1118 1117 
f 687 680 1114 1113 
f 723 686 1112 378 
f 691 724 1108 1111 
f 724 725 1105 1108 
f 725 631 1106 1105 
f 312 1225 1228 313 
f 1292 1252 728 727 
f 1227 1224 315 1228 
f 1159 1167 1224 1227 
f 1158 1168 1167 1159 
f 1228 315 314 313 
f 1158 1157 1292 1290 
f 1290 1292 727 713 
f 1144 1293 1294 1235 
f 1143 1265 1293 1144 
f 1143 1142 1262 1266 
f 1266 1262 644 657 
f 1153 1174 1185 1192 
f 1152 1171 1174 1153 
f 1193 1186 1175 1154 
f 1234 1295 1139 1155 
f 1154 1175 1178 1155 
f 1192 1185 1186 1193 
f 1235 1294 1295 1234 
f 1125 1246 1247 1203 
f 1204 1244 1245 1122 
f 1122 1245 310 309 
f 1203 1247 1244 1204 
f 1124 1248 1246 1125 
f 652 642 1171 1152 
f 722 617 1248 1124 
f 732 717 1133 1296 
f 1297 1298 1299 1300 
f 1301 1200 1137 1302 
f 1303 1136 1199 1304 
f 1304 1199 1200 1301 
f 374 373 1305 1306 
f 1302 1137 1140 1307 
f 1296 1133 1136 1303 
f 1308 1296 1303 1309 
f 322 1302 1307 1310 
f 1311 1304 1301 321 
f 1309 1303 1304 1311 
f 321 1301 1302 322 
f 1306 1305 1312 1313 
f 751 732 1296 1308 
f 752 754 1314 1214 
f 1300 1299 1208 1253 
f 1218 1315 1316 1215 
f 1211 1317 1318 1319 
f 1319 1318 1315 1218 
f 1215 1316 1320 1256 
f 1214 1314 1317 1211 
f 761 751 1308 1321 
f 1322 1309 1311 1323 
f 1323 1311 321 320 
f 1313 1312 1324 1325 
f 318 322 1310 1326 
f 1321 1308 1309 1322 
f 1327 1321 1322 1328 
f 323 318 1326 1329 
f 1325 1324 1330 1331 
f 1332 1323 320 326 
f 1328 1322 1323 1332 
f 326 320 319 327 
f 1208 1207 1254 1253 
f 774 761 1321 1327 
f 775 774 1327 1333 
f 1334 1328 1332 1335 
f 1335 1332 326 325 
f 324 323 1329 1336 
f 1333 1327 1328 1334 
f 1314 1333 1334 1317 
f 1316 324 1336 1320 
f 1318 1335 325 1315 
f 1317 1334 1335 1318 
f 1315 325 324 1316 
f 1331 1330 1298 1297 
f 754 775 1333 1314 
f 1337 1338 782 781 
f 1305 373 1338 1337 
f 1312 1305 1337 1339 
f 1339 1337 781 785 
f 1205 1340 787 786 
f 1208 1299 1340 1205 
f 1341 1339 785 790 
f 1324 1312 1339 1341 
f 1330 1324 1341 1342 
f 1342 1341 790 792 
f 1343 1342 792 794 
f 1298 1330 1342 1343 
f 1299 1298 1343 1340 
f 1340 1343 794 787 
f 1329 1344 1345 1336 
f 1344 1346 1347 1345 
f 1346 1331 1297 1347 
f 1319 1348 1212 1211 
f 1326 1349 1344 1329 
f 1349 1350 1346 1344 
f 1350 1325 1331 1346 
f 1310 1351 1349 1326 
f 1351 1352 1350 1349 
f 1352 1313 1325 1350 
f 1320 1353 1101 1256 
f 1353 1354 1098 1101 
f 1354 1300 1253 1098 
f 1307 1355 1351 1310 
f 1355 1356 1352 1351 
f 1356 1306 1313 1352 
f 1140 370 1355 1307 
f 370 375 1356 1355 
f 375 374 1306 1356 
f 1336 1345 1353 1320 
f 1345 1347 1354 1353 
f 1347 1297 1300 1354 
f 319 318 323 327 
f 1357 372 1289 1358 
f 462 461 244 243 
f 244 461 235 234 
f 242 252 462 243 
f 811 1357 1358 812 
f 782 1338 1357 811 
f 312 1359 1360 1225 
f 1361 1362 817 816 
f 1291 290 121 125 
f 301 1363 820 362 
f 446 450 449 447 
f 1364 366 824 823 
f 125 820 1363 1291 
f 1245 279 278 310 
f 1132 1560 1559 300 
f 1131 1558 1560 1132 
f 284 349 1365 285 
f 247 246 300 299 
f 299 357 358 298 
f 1366 1367 832 831 
f 1366 1368 1369 1370 
f 1368 1366 831 837 
f 1368 1362 1371 1369 
f 1367 1364 823 832 
f 1367 1366 1370 1372 
f 1362 1361 1373 1371 
f 1362 1368 837 817 
f 1374 1361 816 842 
f 1374 393 392 1375 
f 393 1374 842 844 
f 1370 1376 1377 1372 
f 392 1378 1375 
f 1373 1379 1380 1371 
f 1373 1361 1374 1375 
f 1369 1381 1376 1370 
f 1382 1364 1367 1372 
f 367 366 1364 1382 
f 1371 1380 1381 1369 
f 1376 1383 1365 1377 
f 1380 1384 1385 1381 
f 1381 1385 1383 1376 
f 1379 1373 1375 1386 
f 1387 1388 303 1386 
f 1389 1382 1372 1377 
f 1379 302 1384 1380 
f 1390 367 1382 1389 
f 1385 287 286 1383 
f 302 289 288 1384 
f 302 1379 1386 303 
f 1383 286 285 1365 
f 349 1389 1377 1365 
f 1384 288 287 1385 
f 1388 1391 304 303 
f 348 1390 1389 349 
f 138 829 357 
f 824 366 363 143 
f 367 1390 368 
f 1231 1392 1393 1232 
f 371 1394 1395 1288 
f 1338 373 372 1357 
f 656 812 1358 1267 
f 1265 1267 1358 1289 
f 1286 1395 1394 1287 
f 1140 1287 1394 
f 370 1140 1394 371 
f 1265 1289 1294 1293 
f 1289 1288 1294 
f 1295 1294 1288 1395 
f 1286 1139 1295 1395 
f 864 866 1396 240 
f 867 723 378 377 
f 868 870 1397 376 
f 677 868 376 250 
f 866 872 1398 1396 
f 241 1399 873 676 
f 875 864 240 239 
f 240 1396 1399 241 
f 1399 1400 876 873 
f 1396 1398 1400 1399 
f 872 879 1401 1398 
f 1400 1402 880 876 
f 1398 1401 1402 1400 
f 1403 1404 884 883 
f 879 887 1405 1401 
f 1402 1403 883 880 
f 1401 1405 1403 1402 
f 888 884 1404 1406 
f 1405 1406 1404 1403 
f 887 888 1406 1405 
f 1397 1407 1408 1409 
f 377 1409 893 867 
f 376 1397 1409 377 
f 894 896 1410 1407 
f 870 894 1407 1397 
f 1409 1408 897 893 
f 1411 1412 900 899 
f 1408 1411 899 897 
f 1407 1410 1411 1408 
f 902 905 1413 1414 
f 1410 1414 1412 1411 
f 896 902 1414 1410 
f 1412 1415 906 900 
f 1414 1413 1415 1412 
f 1416 1417 910 909 
f 1415 1416 909 906 
f 1413 1418 1416 1415 
f 905 913 1418 1413 
f 914 917 1419 1420 
f 1418 1420 1417 1416 
f 913 914 1420 1418 
f 1421 1422 920 919 
f 1417 1421 919 910 
f 1420 1419 1421 1417 
f 1422 1423 922 920 
f 1419 1424 1422 1421 
f 917 925 1424 1419 
f 926 929 1425 1426 
f 1424 1426 1423 1422 
f 925 926 1426 1424 
f 1427 1428 932 931 
f 1423 1427 931 922 
f 1426 1425 1427 1423 
f 1429 1430 1431 1428 
f 1425 1429 1428 1427 
f 929 937 1429 1425 
f 938 940 1432 1430 
f 937 938 1430 1429 
f 1428 1431 941 932 
f 1433 1434 944 943 
f 1431 1433 943 941 
f 1430 1432 1433 1431 
f 946 875 239 1435 
f 1432 1435 1434 1433 
f 940 946 1435 1432 
f 1434 238 719 944 
f 1435 239 238 1434 
f 1232 1393 1250 1249 
f 1359 1436 1437 1360 
f 1252 1251 950 728 
f 1225 1360 1231 1226 
f 1157 1249 1252 1292 
f 355 354 1438 1439 
f 1250 1440 379 1251 
f 1393 1441 1440 1250 
f 1436 1442 1443 1437 
f 1251 379 160 950 
f 1437 1443 1444 1392 
f 1360 1437 1392 1231 
f 356 355 1439 1233 
f 354 353 1445 1438 
f 1440 1446 380 379 
f 1441 1447 1446 1440 
f 1442 1448 1449 1443 
f 1443 1449 1450 1444 
f 1392 1444 1441 1393 
f 1444 1450 1447 1441 
f 1436 1359 1233 1439 
f 1442 1436 1439 1438 
f 1448 1442 1438 1445 
f 311 1233 1359 312 
f 1447 1451 386 1446 
f 1448 1452 1453 1449 
f 1449 1453 1454 1450 
f 353 352 1455 1445 
f 1445 1455 1452 1448 
f 1446 386 385 380 
f 380 400 435 381 
f 1450 1454 1451 1447 
f 1452 1456 1457 1453 
f 1453 1457 1458 1454 
f 352 351 1459 1455 
f 1455 1459 1456 1452 
f 1460 1461 1462 
f 1460 1462 428 
f 1454 1458 1463 1451 
f 1451 1463 387 386 
f 1459 1464 1465 1456 
f 1466 1467 432 431 
f 1458 1468 1469 1463 
f 1463 1469 391 387 
f 1456 1465 1470 1457 
f 1457 1470 1468 1458 
f 351 350 1464 1459 
f 387 391 390 382 
f 1468 1387 1378 1469 
f 1469 1378 392 391 
f 1465 1391 1388 1470 
f 1470 1388 1387 1468 
f 350 305 1471 1464 
f 1464 1471 1391 1465 
f 390 389 1472 1473 
f 406 416 415 407 
f 382 397 401 383 
f 396 1467 1474 397 
f 398 1475 1476 399 
f 399 1476 427 436 
f 397 1474 1477 401 
f 1467 1466 1474 
f 1474 1466 1478 1477 
f 1475 1460 1476 
f 1478 1461 1479 1477 
f 1477 1479 402 401 
f 402 398 385 384 
f 1461 1460 1475 1479 
f 1479 1475 398 402 
f 1467 396 433 432 
f 396 395 434 433 
f 1478 1466 431 430 
f 1461 1478 429 
f 1478 430 429 
f 1476 1460 428 427 
f 403 419 418 404 
f 411 423 422 412 
f 414 420 419 403 
f 405 417 416 406 
f 410 424 423 411 
f 408 426 425 409 
f 413 421 420 414 
f 404 418 417 405 
f 409 425 424 410 
f 407 415 426 408 
f 412 422 421 413 
f 435 993 161 381 
f 400 399 436 435 
f 395 390 1473 434 
f 434 994 993 435 
f 434 1480 995 994 
f 997 1000 1481 1482 
f 1473 1472 1483 1480 
f 1472 440 1484 1483 
f 1483 1484 1004 1003 
f 1482 1481 1485 442 
f 1482 442 441 1486 
f 440 439 443 1484 
f 389 388 440 1472 
f 388 394 222 440 
f 1480 434 1473 
f 1480 1483 1003 995 
f 394 393 844 222 
f 441 438 437 1486 
f 1007 997 1482 1486 
f 1487 1481 1000 1009 
f 1487 1488 1485 1481 
f 442 1485 1488 443 
f 1484 1487 1009 1004 
f 443 1488 1487 1484 
f 1378 1387 1386 1375 
f 222 1007 1486 437 
f 282 281 289 305 
f 1391 1471 305 304 
f 1218 1217 1348 1319 
f 1489 1490 1013 1012 
f 1256 1255 1216 1215 
f 1015 1348 1217 1016 
f 1491 1492 1493 1494 
f 1021 1024 1495 1496 
f 1497 1498 1499 1500 
f 1501 1502 1498 1497 
f 1500 1499 1492 1491 
f 1503 1504 1502 1501 
f 1505 1506 1504 1503 
f 1214 1213 1035 752 
f 786 1036 1206 1205 
f 1507 1492 1499 1508 
f 1039 1509 1510 
f 1511 1565 1042 1493 
f 1212 1045 1044 1213 
f 1504 1506 1510 1509 
f 1499 1498 1512 1508 
f 1498 1502 1513 1512 
f 1502 1504 1509 1513 
f 1489 1049 1048 1490 
f 1514 1510 1506 1505 
f 1494 1493 1042 1051 
f 1052 1039 1510 1514 
f 1493 1492 1507 1511 
f 1212 1348 1015 1045 
f 1515 1516 1055 1054 
f 1496 1495 1517 1518 
f 1518 1517 1519 1520 
f 1520 1519 1521 1522 
f 1523 1524 1525 1526 
f 1522 1521 1527 1528 
f 1528 1527 1524 1523 
f 1526 1525 1516 1515 
f 1495 1529 1530 1531 
f 1516 1532 1072 1055 
f 1495 1531 1533 1517 
f 1517 1533 1534 1519 
f 1519 1534 1535 1521 
f 1524 1536 1537 1525 
f 1521 1535 1538 1527 
f 1527 1538 1536 1524 
f 1525 1537 1532 1516 
f 1216 1526 1515 1217 
f 1100 1528 1523 1255 
f 1099 1522 1528 1100 
f 1255 1523 1526 1216 
f 1254 1520 1522 1099 
f 1207 1518 1520 1254 
f 1206 1496 1518 1207 
f 1217 1515 1054 1016 
f 1036 1021 1496 1206 
f 1080 1052 1514 1531 
f 1532 1494 1051 1072 
f 1531 1514 1505 1533 
f 1533 1505 1503 1534 
f 1534 1503 1501 1535 
f 1536 1500 1491 1537 
f 1535 1501 1497 1538 
f 1538 1497 1500 1536 
f 1537 1491 1494 1532 
f 1530 1539 1082 1081 
f 1531 1530 1081 1080 
f 1024 1084 1529 1495 
f 1080 1081 1084 1024 
f 1082 1088 1092 1086 
f 1084 1086 1540 1529 
f 1081 1082 1086 1084 
f 1529 1540 1539 1530 
f 1541 1542 1089 1088 
f 1540 1543 1541 1539 
f 1539 1541 1088 1082 
f 1086 1092 1543 1540 
f 1093 1089 1542 1544 
f 1092 1093 1544 1543 
f 1088 1089 1093 1092 
f 1543 1544 1542 1541 
f 1213 1044 1096 1545 
f 1213 1545 1097 1035 
f 1545 1096 1049 1489 
f 1545 1489 1012 1097 
f 1014 1013 1048 
f 365 364 346 1285 
f 365 357 829 144 
f 361 360 296 295 
f 298 358 359 297 
f 448 348 347 369 
f 296 360 359 297 
f 1285 299 298 346 
f 357 365 364 358 
f 346 298 297 347 
f 358 364 369 359 
f 364 346 347 369 
f 296 360 452 444 
f 368 1390 348 448 
f 247 299 1285 232 
f 445 451 450 446 
f 444 452 451 445 
f 369 368 448 
f 1546 141 140 819 
f 1547 1548 124 123 
f 294 1549 122 121 
f 1550 1546 819 821 
f 1548 1550 821 124 
f 714 827 1550 1548 
f 453 136 141 1546 
f 715 714 1548 1547 
f 293 705 1549 294 
f 827 453 1546 1550 
f 126 137 127 
f 1549 705 1551 1552 
f 705 660 659 1551 
f 122 1549 1552 123 
f 123 1552 1547 
f 1552 1551 715 1547 
f 1551 659 661 715 
f 660 292 658 
f 658 292 679 678 
f 658 678 52 60 
f 658 496 661 
f 1509 1039 1563 
f 1043 1565 1566 1037 
f 1508 1564 1566 1507 
f 1046 1038 1564 1561 
f 1047 1046 1561 1562 
f 1513 1509 1563 1562 
f 293 1553 291 292 
f 294 1554 1553 293 
f 1555 1554 290 1291 
f 1557 296 297 1559 
f 1557 1556 1363 301 
f 1556 1555 1291 1363 
f 1558 1553 1554 1555 
f 1559 297 298 300 
f 1559 1560 1556 1557 
f 1560 1558 1555 1556 
f 300 298 299 
f 1048 1013 1490 
f 1563 1039 1041 
f 1561 1564 1508 1512 
f 1043 1019 1042 1565 
f 1562 1561 1512 1513 
f 1566 1565 1511 1507 
f 1562 1563 1041 1047 
f 1566 1564 1038 1037 
f 1598 1587 1574 1573 
f 1576 1575 1591 1599 
f 1599 1591 1590 1600 
f 1600 1590 1589 1601 
f 1601 1589 1588 1602 
f 1602 1588 1587 1598 
f 1602 1598 1603 1604 
f 1604 1603 1605 1606 
f 1598 1573 1607 1603 
f 1572 1576 1608 1609 
f 1600 1601 1610 1611 
f 1576 1599 1612 1608 
f 1601 1602 1604 1610 
f 1573 1572 1609 1607 
f 1599 1600 1611 1612 
f 1611 1610 1613 1614 
f 1608 1612 1615 1616 
f 1607 1609 1617 1618 
f 1610 1604 1606 1613 
f 1612 1611 1614 1615 
f 1609 1608 1616 1617 
f 1603 1607 1618 1605 
f 1615 1614 1619 1620 
f 1617 1616 1621 1622 
f 1605 1618 1623 1624 
f 1606 1605 1624 1625 
f 1614 1613 1626 1619 
f 1616 1615 1620 1621 
f 1618 1617 1622 1623 
f 1613 1606 1625 1626 
f 1626 1625 1627 1628 
f 1620 1619 1629 1630 
f 1622 1621 1631 1632 
f 1624 1623 1633 1634 
f 1625 1624 1634 1627 
f 1619 1626 1628 1629 
f 1621 1620 1630 1631 
f 1623 1622 1632 1633 
f 1629 1628 1635 1636 
f 1631 1630 1637 1638 
f 1633 1632 1639 1640 
f 1628 1627 1641 1635 
f 1630 1629 1636 1637 
f 1632 1631 1638 1639 
f 1634 1633 1640 1642 
f 1627 1634 1642 1641 
f 1642 1640 1643 1644 
f 1641 1642 1644 1645 
f 1636 1635 1646 1647 
f 1638 1637 1648 1649 
f 1640 1639 1650 1643 
f 1635 1641 1645 1646 
f 1637 1636 1647 1648 
f 1639 1638 1649 1650 
f 1646 1645 1651 1652 
f 1648 1647 1653 1654 
f 1650 1649 1655 1656 
f 1644 1643 1657 1658 
f 1645 1644 1658 1651 
f 1647 1646 1652 1653 
f 1649 1648 1654 1655 
f 1643 1650 1656 1657 
f 1657 1656 1659 1660 
f 1652 1651 1661 1662 
f 1654 1653 1663 1664 
f 1656 1655 1665 1659 
f 1658 1657 1660 1666 
f 1651 1658 1666 1661 
f 1653 1652 1662 1663 
f 1655 1654 1664 1665 
f 1661 1666 1585 1584 
f 1663 1662 1583 1582 
f 1665 1664 1581 1580 
f 1660 1659 1579 1586 
f 1662 1661 1584 1583 
f 1664 1663 1582 1581 
f 1659 1665 1580 1579 
f 1666 1660 1586 1585 
f 1571 1570 1597 1667 
f 1569 1568 1668 1595 
f 1568 1578 1594 1668 
f 1577 1571 1667 1592 
f 1594 1593 1669 1670 
f 1667 1597 1671 1672 
f 1595 1668 1673 1674 
f 1668 1594 1670 1673 
f 1592 1667 1672 1675 
f 1597 1596 1676 1671 
f 1675 1672 1677 1678 
f 1669 1593 1592 1675 
f 1676 1596 1595 1674 
f 1671 1676 1679 1680 
f 1670 1669 1681 1682 
f 1669 1675 1678 1681 
f 1672 1671 1680 1677 
f 1674 1673 1683 1684 
f 1676 1674 1684 1679 
f 1673 1670 1682 1683 
f 1679 1684 1685 1686 
f 1683 1682 1687 1688 
f 1678 1677 1689 1690 
f 1680 1679 1686 1691 
f 1681 1678 1690 1692 
f 1682 1681 1692 1687 
f 1677 1680 1691 1689 
f 1684 1683 1688 1685 
f 1689 1691 1693 1694 
f 1685 1688 1695 1696 
f 1686 1685 1696 1697 
f 1688 1687 1698 1695 
f 1690 1689 1694 1699 
f 1691 1686 1697 1693 
f 1692 1690 1699 1700 
f 1687 1692 1700 1698 
f 1701 1702 1703 1704 
f 1705 1706 1707 1708 
f 1709 1710 1711 1712 
f 1713 1701 1704 1714 
f 1702 1705 1708 1703 
f 1706 1715 1707 
f 1716 1709 1712 
f 1710 1713 1714 1711 
f 1712 1711 1717 1718 
f 1714 1704 1719 1720 
f 1703 1708 1721 1722 
f 1707 1715 1723 
f 1716 1712 1718 
f 1711 1714 1720 1717 
f 1704 1703 1722 1719 
f 1708 1707 1723 1721 
f 1723 1715 1724 
f 1716 1718 1725 
f 1717 1720 1726 1727 
f 1719 1722 1728 1729 
f 1721 1723 1724 1730 
f 1718 1717 1727 1725 
f 1720 1719 1729 1726 
f 1722 1721 1730 1728 
f 1727 1726 1731 1732 
f 1729 1728 1733 1734 
f 1730 1724 1735 1736 
f 1725 1727 1732 1737 
f 1726 1729 1734 1731 
f 1728 1730 1736 1733 
f 1724 1715 1735 
f 1716 1725 1737 
f 1737 1732 1738 1739 
f 1731 1734 1740 1741 
f 1733 1736 1742 1743 
f 1735 1715 1744 
f 1716 1737 1739 
f 1732 1731 1741 1738 
f 1734 1733 1743 1740 
f 1736 1735 1744 1742 
f 1741 1740 1745 1746 
f 1743 1742 1747 1748 
f 1744 1715 1749 
f 1716 1739 1750 
f 1738 1741 1746 1751 
f 1740 1743 1748 1745 
f 1742 1744 1749 1747 
f 1739 1738 1751 1750 
f 1716 1750 1752 
f 1751 1746 1753 1754 
f 1745 1748 1755 1756 
f 1747 1749 1757 1758 
f 1750 1751 1754 1752 
f 1746 1745 1756 1753 
f 1748 1747 1758 1755 
f 1749 1715 1757 
f 1756 1755 1702 1701 
f 1758 1757 1706 1705 
f 1752 1754 1710 1709 
f 1753 1756 1701 1713 
f 1755 1758 1705 1702 
f 1757 1715 1706 
f 1716 1752 1709 
f 1754 1753 1713 1710 

